/* XPM */
static char * test_door_xpm[] = {
"32 32 129 2",
"  	c #00D7F1",
". 	c #7CBDD4",
"+ 	c #A1A6BB",
"@ 	c #B692A4",
"# 	c #AD9BAE",
"$ 	c #A3A5B9",
"% 	c #80BBD2",
"& 	c #5FC9E1",
"* 	c #CD7381",
"= 	c #E23A44",
"- 	c #E62830",
"; 	c #D06D7C",
"> 	c #B296A9",
", 	c #50CDE6",
"' 	c #AB9EB1",
") 	c #DF4752",
"! 	c #E52B33",
"~ 	c #E52A32",
"{ 	c #E3363F",
"] 	c #D75F6C",
"^ 	c #B396A9",
"/ 	c #DB535E",
"( 	c #E90007",
"_ 	c #E71D25",
": 	c #D36775",
"< 	c #D46471",
"[ 	c #E71E25",
"} 	c #E80D15",
"| 	c #E8060E",
"1 	c #E80F17",
"2 	c #E71820",
"3 	c #CD7382",
"4 	c #6CC4DC",
"5 	c #E1404A",
"6 	c #E71920",
"7 	c #C97989",
"8 	c #DA5763",
"9 	c #E6232A",
"0 	c #E8141C",
"a 	c #E8131A",
"b 	c #E23942",
"c 	c #DD4C57",
"d 	c #E13F48",
"e 	c #E6222A",
"f 	c #BD8A9C",
"g 	c #99ACC2",
"h 	c #DE4A55",
"i 	c #CB7686",
"j 	c #DD4E59",
"k 	c #E8161D",
"l 	c #D26A78",
"m 	c #AA9FB2",
"n 	c #CC7382",
"o 	c #E13E47",
"p 	c #C28394",
"q 	c #DB525E",
"r 	c #C58090",
"s 	c #E71A22",
"t 	c #D95A66",
"u 	c #D16A78",
"v 	c #8CB5CB",
"w 	c #D06D7B",
"x 	c #E0444E",
"y 	c #BF8798",
"z 	c #E6272E",
"A 	c #CA7887",
"B 	c #B98FA1",
"C 	c #D85D6A",
"D 	c #E81219",
"E 	c #E72028",
"F 	c #DB5460",
"G 	c #D5626F",
"H 	c #9BABC0",
"I 	c #C77C8D",
"J 	c #E4313A",
"K 	c #DF4651",
"L 	c #E9030B",
"M 	c #E9060E",
"N 	c #E71D24",
"O 	c #E4343D",
"P 	c #E62128",
"Q 	c #E80B13",
"R 	c #E8141B",
"S 	c #E13F49",
"T 	c #C48191",
"U 	c #E52E36",
"V 	c #D95965",
"W 	c #19D6F0",
"X 	c #4BCFE8",
"Y 	c #E42F38",
"Z 	c #D85A67",
"` 	c #CD7281",
" .	c #38D2EC",
"..	c #E4323B",
"+.	c #DF4853",
"@.	c #E80A12",
"#.	c #E71E26",
"$.	c #E52C34",
"%.	c #B197AA",
"&.	c #D36876",
"*.	c #DC515C",
"=.	c #E81018",
"-.	c #E80C14",
";.	c #E9040C",
">.	c #E80810",
",.	c #E6262E",
"'.	c #E6262D",
").	c #E72027",
"!.	c #E6232B",
"~.	c #D6606D",
"{.	c #DF4852",
"].	c #DD4F5A",
"^.	c #E81017",
"/.	c #DF4650",
"(.	c #E90108",
"_.	c #E90209",
":.	c #B495A7",
"<.	c #E71921",
"[.	c #E90008",
"}.	c #E7171E",
"|.	c #DA5561",
"1.	c #E80911",
"2.	c #D75D6A",
"3.	c #C28495",
"4.	c #E23C46",
"5.	c #C67D8D",
"6.	c #D95A67",
"7.	c #CE707E",
"8.	c #E4333C",
"                                                                ",
"                                                                ",
"      . + @ @ @ @ @ + .                 . + # $ % &             ",
"      * = - = = = = = ; > ,             ' ) ! ~ { ] ^ .         ",
"    , / ( _ = = = = = ( : '         , ' < [ } | 1 2 = 3 .       ",
"    4 5 6 5 @ @ @ @ 7 8 9 3 .       , ; 2 0 a b c d e = f .     ",
"    g h 9 i           ^ j 5 f .     , 8 k 1 l + , m n o ) f .   ",
"    m = = p           . f = ) f     . 8 ( ) +       . 7 = ) +   ",
"    @ = = @             . q ( <     + = = 7           @ = = @   ",
"    r - - r               q ( q     p = = m           7 = = +   ",
"    r s s r               q ( q     i 9 h g         , < ( t .   ",
"    r - - r               q ( q     u 9 h %         v h 9 w     ",
"    p = = m           . p x ( 3     y z 5 A g ,     B 5 5 ^     ",
"    C D E F u u u G t q - } q '     H I 9 J K q q q ) 9 3 .     ",
"    c L M N 9 9 9 9 ( ( - O 3         H 3 = P ( ( ( ( : '       ",
"    c Q R S h h h h q < n m v           . p ] j q q ; > ,       ",
"    T U V H % % % 4 ,                   ' 3 5 I H               ",
"    H ' ' ,     W , , X               . 3 ( Y 9 3 H             ",
"            + 7 Z V ` H            .. @ O ..+.S 9 I ,           ",
"          ' q k ( @.#.3 .         , > x $.= %.&.P *.v           ",
"        ' 3 ( =.-.;.>.,.; v       , n '.( 8 . p = = m           ",
"      , 3 ( x 8 ..,.).0 !.< H      .G M ;.~ ~.{.$.) +           ",
"      v h 9 w . + @ r ].^._ y       /.(.( _.>.| = f .           ",
"      m = = p         :.b <.u       /.(.( [.(.}.q .             ",
"      @ = = @         % h 9 u       |.;._.}.~ ( ; .             ",
"      @ = = @         g h 9 i       G 1.1.2.3.4.= f ,           ",
"      @ = = @         5.$.$.p       G 1.1.G . w 9 6.v           ",
"      + q = 8 t G u G x } = +       G 1.1.G   ^ ) = 3..         ",
"      . ' 3 ( ( 9 9 9 ( h 3 .       G 1.1.G   . 3.= ) ^         ",
"          ' 3 q h h h ; > ,         7.=.=.7.    v : 8.^         ",
"              , 4 % 4 ,             @ = = @     , ' ' H         ",
"                                    . ' ' .                     "};
