/* XPM */
static char * test_8x8_xpm[] = {
"8 8 5 1",
" 	c #13ABE1",
".	c #E90007",
"+	c #18A9DC",
"@	c #0DAFE4",
"#	c #05B2E7",
" ......+",
"........",
"........",
"........",
"........",
"........",
"........",
"@......#"};
