/* XPM */
static char * bamboo_xpm[] = {
"64 64 49 1",
" 	c #47592C",
".	c #577036",
"+	c #5B7539",
"@	c #5F7C3C",
"#	c #617442",
"$	c #63803F",
"%	c #627E3D",
"&	c #617E3E",
"*	c #597338",
"=	c #546A34",
"-	c #4C602F",
";	c #333E1F",
">	c #536A34",
",	c #587137",
"'	c #5D783B",
")	c #607D3D",
"!	c #617D3E",
"~	c #5D773B",
"{	c #506632",
"]	c #4E6331",
"^	c #3D4D26",
"/	c #374422",
"(	c #546C35",
"_	c #5E7A3C",
":	c #617E3D",
"<	c #627F3E",
"[	c #5B733A",
"}	c #546B35",
"|	c #415128",
"1	c #566E37",
"2	c #5F7A3B",
"3	c #607B3D",
"4	c #4A5D2E",
"5	c #536438",
"6	c #44552A",
"7	c #3A4824",
"8	c #556D36",
"9	c #5C763A",
"0	c #587138",
"a	c #658341",
"b	c #516833",
"c	c #576F37",
"d	c #627D3E",
"e	c #6A8048",
"f	c #586B3B",
"g	c #83A652",
"h	c #8FB757",
"i	c #7A984F",
"j	c #718B4B",
" .+@#$%&*=- ;>,'#%)!~.{]^/(+_$$:<)[}]|^1*23<&<'.]4/|,*~%')+[5-67",
"48'~%&<&9>]6;{09a&$!',}{6/}.')$<<)[b4^|['9'2<$~,=]76*[)!_$3*b] /",
"-.9__$<)98-|;{0_$:_!~'c{|7>(9%$$d@*b ^^[+[3@d<~0>]760+%3&$'9b] 7",
"]8[3%_&3_(5|;{+)e2%@@90]6/>(~3<<<20{-|^}[+)!!3'8.{|6['<d3<_,(-47",
" 89&%%d)'1{6;b'<&%3<%[8]|7]>f92<)+= 6^^c,+32_)9.{]7 +_2a~<_[b-47",
"489$%)a3~(]|/=*2@<)d&9({67.<'d+_'0c8( ^c9+)_$%98{476+*)a%<_*8]-7",
"]*cd!!&$*>-6/8''!$_<39.]|4ghhhhhhhhgij].+93'd<*(]-7 ++3$3$2*={-7",
"]c+3)$a&~>-6/8'93<d<_*1]|4iighhhhggije5}99d%$<'8{-^6[+<$d$3+(b47",
" (,_%da$'(- /=923%$<_[.-| jiiiiiiijjee *99$$$!9>-]^6,~2$#%39>b47",
"-,*~@$a<+}] 7{+'@)$d3*c4|/{]]{{>b- 6|7^0''aa$@9({]|6[_%$%<)*.]47",
"-*[__%<~0>] /{03&$d&_,}-|7b+'aa$$!1]6|^,[3d$<$9={-^6*+3$!a%9({ 7",
"]*9~<d!'[b{ /]c'!a%@&,=-67.'3<$:a~.5-|^>03$$$<~>]4|6*9%$!$$~c]47",
"4,*~3&:'f}-6;b.~!a!%_,b{^7,3!$$%!_8b-|^>03$a&!+>--^409&$&$!+({-7",
"-0*+3'<'0>-6/5*~!<!!'.8{670+%$a@%_*>{|^(0_aa%%~=--|40*%_$$%9c{-7",
" ((+'~%9c]6|;>0+_$d<9*]>|7=[@aa:@_*>{|/b(~&a!$+{447 093$$$!+.{47",
" ]{}1[91b ||/(~*3$!<3*>=67c9$ae$<3+{{^|b>bc0.(5-]4| 0*)$$$<'*{47",
"]9a0$~ad[98]7>+[:d%$'[(=|7*_$$<!<_3>]| jieiiiiiia${ .+_%#%%'.{4^",
"ighghhhhhgii#]''@&33'*cb|7*3a$a$%_)({^5igghhhggiije c*)_$3<~c-4^",
"eiigghggiije5{''_@_:~+1(|^,_&&!:&@~8]^5gghhhhhggiij6.2%2)3%',-6^",
"ejijiajeeee#5]+9)3<32[8{67*)a:$%&32b5^6_[890#[fff54|+~$92<$'c-4^",
" -4{b((]4||^;{[~:d_9+*8]^^,22$$:2~[b4|/]{8,[*}-6^^/6*9)''3#9}- ^",
"4(*~$&)_9b4|/]c+$d%~'*.]|/89%$$)<~[{-|^8*_)3$$_0] 76[*@223@_8] 7",
"-*'2&%33'(- /{.+%a2~9*c{67f9_a<$&_,>467+'33@$<'*b476(,+2'%3)({ ^",
"-.92a@)_~c= /bc[$))9'0c-67.*!aa<&_[>-6^0~'&3ad'08-^600~__!<+}- 7",
"]c[2&!3~90{ ;{=,2)93+c54|71*!aa<%_*=4^7**3!3%<++{4^|=8[_!<2*]4|7",
"]c_3%d%99c= /]>(__)!9c{ |/c[$ae<<_,=-|^0[3<3$&20{4^|]]*~$@+> 6 7",
"489<3a<9[0]6;]1f+11.>-446^19!aa<%$[(-|^*'&%)3!#1]476b!b_0~*+cb-7",
"4('3e$<9+c]6/jigggiggjije4.0%aa:<<~}-|^,'333%d_.={^dghhhhhhggii#",
" }1)$:__*(]|/iiiggghggjje5('&a$<$:9b4|709'_!&d~.5]7#iighghggjje#",
" c[2$%!'[c{67igghhhhhggii582!a$$$@)> ^^+~2:%a$2cb{7egigggggiijj#",
"|.[%!<<200] ;[0f1f]b{44-4782%a$$<<'b |7*2'&$$$'.{{^6]]b1>84 |6^;",
"61*233$_*cb67]=.3<$<+{-6^71'<aa$$a2{4||+!'<$$d+(=]^6.*)$aa'[{ |;",
"6.[@!)$@,8- /(+@%a$<+0=]6^}~$aaa$<'{ 6^*_+2)$$~=--7 *+3$d<~[>]6/",
"4893$$<:+>{ 7803$$3$+[[{ 7.0)&ea<3_]-||*%'d2<$'c]-^ +9))$$_*8] 7",
"],*2)ad<9.] 7.9'd!d)+9.]67(1~:a$%~+{ ||1%2&@%<'0{-^ +93%$<'*}] 7",
"]0'2a&)2[.{4^>9_ada$3*,-67>(93a$!'[{4^^(:'&%!!'({-| +9)$a$20c]47",
" 8933%33*}] /b[~&a3a90.{|7=(8*33+.>- ^7>392<d$~c--^ 09'a%a2*8] 7",
"-.2~&<:%+({ 75+*%a$!+09{67+a_$9'~_)+(|^>'[%_a&~(]-^ **'<$$3,>]4/",
"-.*2_$!$*(b /(+'da<%[9+b| ghhhhhhhggij4.9+23$$',]-7 **~d$$2[(] 7",
"50~9_<$%*8{ /8+[<aa2'*[b| iihhhhhggije >2+:3<$9.=-^ +,33%<)+>] /",
"4+_2_$$$c8] /=*_!a&@+*0]^6iiiiiiiiije#|899)&$<9*>-7 *+3@3$$+8]6^",
"-+~3%%$$'>] /=+'!<)<_*+-^;{]]b8({  6|//>99%!<%90b-^6+_'@!aa_0{67",
" >*)!)%<9>]4/=*22_d<_*,]^/b*_$$<&21]|^/8'~2<))+c{]^6[2'__!<@c{ 7",
"4}[_<3$)_={ /b'~<<$&2,.-|/(+$$$&$_[=4|^}['!<<3'0=4^ [~)$d$a'c- 7",
"6=*_3@$)+=54/>+'<:$<_,b-|7.9%)d$<_.(-6^.8~d)%<'*{47 *~2a&$$'(]|7",
"4>0_d2$3+b]6/{99!)$$@1(-6/.9%&$2)~0>-|^18*)$<%~0b4^ +'3$$3!~.] 7",
"65c2d<)~0{46/>*~&)$<~.>-6/{*%$d%3_0{4|7>(+_$@%[8{ 76+~3$$d&+1] 7",
" ->(+0.cb--6/b0~<$$<@8}] />.d@$%%_+{-^^b1>.[08>-46||*9_%$<<*,-47",
"-[a3a_aa&~9{7{1'2&&&28b-6/=[))$$)39(-|4jijiiiijjae5 *'_$)d)0c-4/",
"ighhhhhhhigjf-c2!d$&28>4 /.+)<a$%3'(]^figghghhhgije40~:3%d)0c- /",
"eiigggggiije54('<$&!'.(4|/c~)$a:)<+c-|fgghghhhggiie 8[2$$%%[}]6/",
"ejijgjiijee#4-*+!$<3_8.46/0~dda$&39(=|63$[~f[cf5554^.[)%$$)9c]4^",
"6]]]]{b46|^7;b+9<3d2*>c{|/093$$:<_90]|7]{b}181]46|/|,0_<d$2+5]6^",
"4.~'@)a_,] |;]22$&<2[0,}670+%$ad<3_0b^78'2:%3&'(] ^6*03!$d)'1- /",
"4+[~3$%%*(- /5+_&!&2+.}]|7(9)a$<<2~,b^7092!<d<~,{476092'!<3'1{ 7",
"-.*~<$<)[(] 7=[93'%)~*}{67c+)$a<a~9.b^7.22<a$&_8{-|6+9_'a%&9}- 7",
"-09)_$d30}- />**+9)<*[5{|71*%$$a&)'.4^7*+~)$&d_*b4^6,9+2$23~5-6/",
"{*'&3$<20>b 7]c,+_a<+c= |/[+)$e:$:~c]77093$3$$_*b-|6>([9&'3*{6|7",
"-'+dd<!%*>{ />=88~_+{- -6^09_)a$%_9.-|^0+3$2$&_*{-7 8_{*.0(b]{47",
"4.[2!@%'*b{ /jigigggijije4.+'<a<<39}-|^,9d$%@__*{47dhgghhhhhhgi#",
" c*3'dd~9b]6/jigghhhggjje5(+'&a<<)*,4|^+*3!&%_~.]4/#jiigigggije#",
" 8)3&a$2+=] 7ghhhhhhhggij]{~@$a<<39c-||**_33$)'(b 7eiigggggiijj#",
" [~'$$<3*=] ;~*0c05b]{-] /b_<ja$%@9,]|^9+'$)%$+0b476{]]b4]  ||^;",
" 19_&3<)+>{ 7]b.3&d2[b46|;([%aa<%3[8]6^}+3a)d$9c(-^|8(3%)!'[5 |7"};
