/* XPM */
static char * barrel_xpm[] = {
"64 64 26 1",
" 	c #525560",
".	c #575B67",
"+	c #525460",
"@	c #575A67",
"#	c #585B68",
"$	c #535560",
"%	c #535561",
"&	c #5F687B",
"*	c #585B67",
"=	c #60687B",
"-	c #5F677B",
";	c #403E44",
">	c #60687C",
",	c #3F3E44",
"'	c #3F3E43",
")	c #563925",
"!	c #68432B",
"~	c #473020",
"{	c #403F44",
"]	c #754B30",
"^	c #7E5134",
"/	c #8D5C3A",
"(	c #372719",
"_	c #865737",
":	c #96623D",
"<	c #A26A43",
" .+@@.+. #$%+@@@%## .#$@@$@.@#.@@.#.@.@ +%++$+@+..@%  &..$@..@@@",
".*.* .%.$*$  @ #@##@@@+@... .@  $.@@ ++++% $ % +%+@ ++@$$ $@@.##",
"@@#$.@$.+.$ =+-#&.&@=$-@.@ %..@@$$+$+$  $ +$@ $%@$@$$ @+$$+$+@.@",
".@.@..%  @$%.=#@@-@.#=@@@*$$+@$@$++ %@++   %.$$ $ +@+ .%+$%+@@%;",
"@@.@..%++.% ===.=-=-====-=-==-=--=--==-=-=----==>-==.%..$$+$$ @.",
"@$@@@#$$$@+,'))#$)))))$-!~)))))..)))))))))){))$@$+~{, % +  ++.++",
".@ ..+ $ @ ,]^/((!!!!!!!/^!!!!^((!!!!!!_!!!!!!!{,):!{+-.@$@$ @$ ",
"@$.+$$+@-=+^]_:~(:!/!/]!<^/!__!~(::/!/_/:!:]__^)~!<_!@-=.+   .. ",
"@@. +.=={~/<^::)(!_!:!^]<_:!_::(~::/!///:!/]_::)(_<//!!$--.@@$+ ",
".@@=>+()_]<^^<:(~<_///_]<^:!/_:(~:/_!://:!:^/:^)(^://^!!(( =-+++",
"+-.;(!:<<]<!//<((:]_:__!<^:!:/:(~/__!_///_/]:_:~(_:^/^!_:^)({-==",
"(~)^:/::!^]]//<(~/]/:^]]_]/!^_/~)/^^!___/_/]/^/((]:___!_://_^)((",
")<:/:__/!__]^/<((/]:/_]^^^:!]/:(~/_^!_____/]/:^~(]_^^^!^_!_^<:<)",
"~</^:^:/!/^^__:)~<^///]^/]/!]/:)(/_^!/!___/!/__((_____!_^!_^/_:~",
"(:^^_^:_!_^^_/<((^_/_/_]_^//^_:(~//_!/!_/_/]_^^((_!/^/^<^!^^:_:)",
"(</__^:_!/^_/:]()]):__^^__//__<~(/__!/!/___/_^^((:!:__]/]!^^_/:(",
"(]:^/_:_!/^__/!(~^_:_/^^/_/___:~~:^_!_!^_^^_^]^((/!:^/]:_!_^_:/(",
"(_:_/_/_!^^__/](~:_/_/]^__/__^:)~/]^^_!___^^^]_((/!_/_]/_^^^^::(",
"(</_/_!/!^^/^/_((:^_^/^^_]//_^:)~/^_]_!__^__^]_((/!^/_]:/]^^^::(",
"(^:^^^!/]^]/]_^~(:]_^/]^_^:/^^:~~_^^^^!^__^^^]_~):!_:^^::]^^_/:(",
"(<^]_]!/^_]/]_]~(/^_^_^]^^/__^/():^]_^!]__^__!:~~:!]:]_/:^^__/:(",
"(//^/]!_^_]_^/:~(:]/]^_]_//__^/~(//!/!!^_/^_^]:(~/!_:!^/^^]]_:_(",
"(/^]_]!_^/^:!__((:!/]^_!:^___^/~~/_]_]!^//^/]^/~)_!//]]__^]]/^:(",
"(^/^_]__]/!/]/!~(_!_]^^):]^__^_~~/^]^^!_/__/]_]~~^!/_^]__^^]:]:(",
"(_:_^]__]_]:_]]~~)]/]_^):!/___/~~_^^_^!^////]_!)~<!__^]//^^]:_:(",
"(/!_^]/^^_]__::(~<!_^^^):!____/~)/_]/_!__/__]^^)~:!^_^]_/_]^:_/(",
"(:!/^]/^^_]]^_:))<)_]^^!:!^_///~~__]_^!__/__]^])~!!___]///]!:^_(",
"(:!_^^:^_^^]]^/~~:!_]]_!:!^_/__~(^^]_^_____^]]]~~<!^//!___:!/]/(",
"(/!]^]/]^^^^_:!~(<!^]]_!_^^_^__~!/_]_^__/_/^^]_)):!]_^]___!)/]:~",
"(:!]_]/]^^^__/:~~:!^]]/!^/^____!~:^^__^__^_]^_]~~:]]^_^___<!:^_(",
"(/!]_]!]^:_]:^:)(^/]^^_!/_^^^^/(!/^]//^/___^!^/((/]^^_]^___!/^<~",
"(/!]^^]^]:^!:^/~~/^^^^_!//__^^^~~:/]/^^_/^_/]^/((<]]_^]^^_/!:]<~",
"(:!]^^!^^::!:__)(/^__/_]_/^__]^)(^_^/^^__^]^]]_(~<]]/_]^_/]!<]<(",
"(/!^^^!]:_:!_^/)(<^____]]_^__^_~(:/]/^]/]/^_]]/(~<!]_^!^^_/):^<(",
"~/!^^^!]:_:!_/_)(<]/_/_]^_:__]_)(:_]:_]/]^^^]]/((/^!:^!^_]:):^:(",
")/_^^/!_:/:!__:)(:^/_/_^__//^!/~(:/^//]/]_^^]]^((/^!_^!__^/):_:(",
"(:_^__!_:^:)_^:!(:^/^//]^_:/]!:~):/__/]/^__^^^^(~<]!^^!___/!/_:(",
"(___^_!//_/]_/:~(//___/^^_//]]/)(:_^//^___^^^^:~(<]^]^]/__!!__:(",
"(:^/^^!_://^!:)(~!//__/^^^__!!_(~___/_^_^_^]^]^~(/]^]_^__/!!/^!(",
"(_^/^_!/_^__!<]((^//___]^]/_!]_((:_/^_]/_:/^^^_()<!/]/!:_/!):]!(",
"()!:^/!:/!_/]//((^_/__^]^^__!^^(~:___/^___/^^^_(~<!/^:!//_!!_^!(",
"(^:/]/!:_!_^^_:((^____^]]^/^!^]((:_^__]^__^^^_^(~/]_^:^___!]__/(",
"(:_:^_]/_!___]:(~/^/_/^]]^_^!/^((:____]_^_]]^^^((<^:]:]/__!^]]<~",
"(<_/^_]:_!___^:(~/]/^_]]^^/]]_:(~:_^__]_^_^^]_/((:!_//!:_/!^]/:~",
"(:___^]:_!_^_^/((<!:_^]^^!:!]^/)~:____^__^^]]_:(~<]^/_]/__/^!//)",
"(_//^^^:_!_^_]_(~<!:/]]^^]:^]/_)(/___^^__^^]___((<]^__^___/^]/:)",
"(:__^]:/^!_^_]:~(<!:/]]_^!]^]^<)~/__^_^/_]]]_]_(~:^^_]]]/^_^]/:~",
"(:/_^]:_^__]^]_((<!:/^]__!^/^]<)~:_^__^__^]]^^:~~:^!^^^^/]__^_<~",
"~_^:/!<___!^_)]~(_]::^]^_!_^_^/((::^_^_^/^]]]^:():_]_]_:!//_^^<~",
")<:_:):^_^!_:^]((_^]/^]^/!/!/!_)(_:^__^_/^^^]_<~~//]_^__!/:_!::)",
"):^/:!:___!^^//(~<_!/_!:_!_!^):~~::]/^]_//]]]/:~~//^_]//!//:]/:~",
"(^^^_]:___!/]]:(~<_^//!:^!_!/]<)~</^:_^_//^__/:)(!/]^^/_!/_^]!^~",
"((~)])_____/_//((:]^!/!::!/!/]/((]:///__/:!/^//)~__!//^:!^^]!()(",
"+=+((~!]^^^_^_:(~//]^:!</^/!_/^~(]/_^___//]^]/:~~^:!::!_!)~-(,+>",
"-$=+-;(~)!]_^]/~~/^^^_]/_^_!^/!((]/_/_]_/]]<_/]~(^<!^]])~(= -$-#",
" - &#=+,(()!!!:(~/!^!^]^^]^!]^/~(]:]]]]!^!]^]^!~(__!!)({+=$$ -..",
"- =$- =@+{{)!!^((^!]!!)]]!!!!!!((]]!)^!!]!!^)!!((!])),-@= -.-.- ",
".+.-$=+-$=$,!!)((]!!!)!!!)))))((()!!)]~)!!~])]^~~)^)+=$-.@.@*-..",
"@ $@=$=+-.-'~~~{,))~~(~~){,{,)$,,~~~()({~'{)~)~{;,)(-$&+-.=.=@.@",
".* @@= &.-$$+- $.=$$%@ $.@%$ .+ *@@$+#@$$>$$+=.$% +%+-..@@@.*@- ",
"..##@$++-@-+-#=$=.=.*.@.$.@.#&..@@.@@@@@=$- =.=.=#+$-$=.@@.*..@ ",
"+ ..# @@@.%-+@==.+ =.%$@@@*.@@.@...@.@%=.$@=@  -@@.. $..@@@@@.@+",
"..@#.@%$ @$$$@$.%.....@%@.#@#@@#@.@.*%@@$.  .@ @@#+@@$@...@.@.@@",
"..@$#@@.$.+.+. +$...@#@.@.@.@@**@...@@* +  +.$ ..+. @+#.@@@.@.@."};
