/* XPM */
static char * quartz_xpm[] = {
"64 64 10 1",
" 	c #DED1C5",
".	c #E3D7CC",
"+	c #D5C6B9",
"@	c #D9CBBF",
"#	c #BEAA9B",
"$	c #D0BFB2",
"%	c #C4B0A2",
"&	c #C9B7AA",
"*	c #B8A294",
"=	c #FFFFFF",
"&&&&%&&&%%%&%&%&%&&&&&&$&$&&&&%%%%%&%%%&%&&&&&&&%%%&&&%&##%%%%%&",
"&. @ @ @ @ @  . .  +@@.  @   @++++@@.@. @         .@@@ @ @@@ @.&",
"#@ @@+@ @@+++++@@+@. @+@ .     ...  @@+@$@+@$++@+@++++$$$$&$+@@&",
"%+ +@$@@@+++++@@@@+@   @      @$+@... .@+  +++++++++@$$&$&$&  @%",
"%@@@$$$+$+$$$@@@+@@ @@@@ ... +#**#$@ ...  ++++@+$+$@$$&$$&&$$@$%",
"&+.@++@@@$+++@+++$    .@ @$&%##*#*#*&& ..@@@@@ +$&++$$$$$$$$$$ %",
"%@ ++@@@+++++@+@ @   . .  **##*#*###*#@...   @@@$+++++$+++&$$$ &",
"&@ +@+ +@$++++@+ @. .  &&$&%$$+$@$&%##$#%$   @+$++@@@+++++$&$$ %",
"*$ @$@@+$$$+$+@@+@  @$#**&+@@+$+$  .@+&***#+@@+@@@@@++$@+$$$$&+%",
"#&.++$$$+$+$++@+ @+&#*##&$+$+$+$++++++@%###*%$@@@@ @  @++$+$+$ %",
"#& ++$&+++@   @@$&***##$@$************&@&%##*#&@      +$++&&$&+%",
"%$.@+&+++$   @+%#*#%##++@*##%%%###%#%#*$@$##%##*&+@@.@@+@++$+&+#",
"*$ @&&$+$+@@$%*#*###*$+@*#%$#%%%#%%%%%#*$+&##%#***%$+@@ @ +$$@+%",
"%$ $++@+ @+#**####%#$++#%#& %%%%%%&#+%%##+@&#####***#$@@ @ ++@@%",
"#+@$&++@.$*#####%%$&+$*%%#&++%#%%%%+$&##*#&@%%####*#**%@ @@+$$@%",
"#++&+$  .&##%&@@ @@++%#%%#$+$@%%%%@++$#%%*%$++@@ +&*#*&.. @@@+@#",
"#+&+&@. .%*$$+$$&&#&$@*%##$++++&%$$ $ #%#*&$%&&&&+@@$*%.@@+$&++%",
"%+@++@.@ &+$@*****#*$+$#%#$+$&#*#%$$$@#%#&+&******%+@$$@@@@$$+@#",
"%+@@$$+ &&%+%##%#%##*+@%*#$$%**###*%%@##&+$*#%####*%$%%&.@++$@+&",
"&+. +@  $*%+##%#%%&%##+ %%&*#&%#%%&**%$%@$##%%&#%##*+%*%.+@++ @&",
"%+ @@+@ #*%@**$+&#*###%+%#**%@+@@+@#*##&+#*%%%$@+$##&%*%+.+++ @&",
"&+.@  @@#*#@#*#$+@+$$%%*####@@ @ @@+##%##&$+@@+$$*##$%#*+ .+@@@%",
"%  @+ @ ***@%**%$+$$##%%%#%$  @@@ @ %%%###*#$+++*###+&**& @++@+&",
"&@. @@ +##*++***$$+$#%%#&& @@@ @@@  . +%%%##$@+&#%%%@%#*&@  . @%",
"%@ .+@@&*#*$@#***+$%%  @@ $@@ @++++   @++@@%%+&##%#+$####@@ +@ &",
"&@.@ @@###%$ #%##*@#*$+  @@@   @@@+@  @@ @+*%$*#%#%@+###% @@ @.&",
"%@ @  @##%$+*%%&%#*&*%@...  @ +@@@$@@ @@@@%*&##%#%*#++###+@  @ &",
"&@.  .$#%&@&%%&%&%#&## ....  @@@.$+@@@ @. #*&#%#%%%*$+&#%$ . +.&",
"%  @  &#%@$#%%%%%&+##% . . @+@+$+$$$$++@@ ##*$###%#%*$+##&  @@+&",
"&  +@.$*$+%%&%&&@@&#&%... . @@$++$+$ @++@ %###@ @%%%#*$&#& @  @&",
"& @@@@$$+&#&+++@@@&&$  .    ++&+++&$@ ++++ +*%&@@@$&##*@++$++ @&",
"&@ @.$*#@$%##$$+@$*$ @. . . @$++@@@$.@@$ ++@%*$. $$##*%+#*$ ..@&",
"%&.@@+*#+ %%#*&+$$*#$.      $++@+@ @$@+++ ++**%+$%***#$+**+  .@&",
"&%.  $*#@ %%&#*#++#*&..   . ++@@@+ @+$++ @@&**&$**###*+@*#+@  $%",
"#%.. &##+ #%%%##*&##$      .@@+@@++++++  .@&*#%**#*###++*#%@ .&#",
"& .. %%#@@+%$&&%&+%%%......................&##$%%#%%%$++#%#@. @%",
"*#%$%###*&*%%&##*%%#*#&&%%%&&&&&%&&&&$%&%%%#%###*#****%**#*#&&**",
"%&$+++ @@@   @ @@@   @++@@@+$&$$@@ @@+$$++@@@+@+@@@$@@@@@@ @.@$#",
"& @  ...     ... . .   @ @ ..   ........ .. @@+++   @@ ...  .@ &",
"#&@@@$$$+@    @+ @ @ @@@  @+   @.  @    .  $+@@$@@@+@+@@  @ .@%*",
"#**#***#***#*********************#*****#*#*****************#***#",
"%#%#####%#%###%#%#%#%*###*#*######%#%#%#%#%#%##********#%#%##%%%",
"%%%%#%#%%%%%%%%%%%%%%%#####%%%#%#%#&%%%%%&%%%%###****#*##%#%%%%%",
"&%%%&%&%%%%%&%%%&%&%%%%#%#%%%%%%&%&%&%%%%%%%%%%####*####%%%%&%&%",
"%&%&%%%%%%%%#%#%#%%%###%##%%%%%&%&%%%&%%%%%%#%##*#*#*######%%&%&",
"$+.  @@+@ ...@ @ @ @@+@  @...@@ .@.  ..@ . +@+@+@+@  @ $@@ @  @&",
"%+@.   ...$@$ @ .... .$$   .  & .& .  @ &+..@@ @++@$$%@    @  $%",
"&.   @ . &@@$..  @  .+$$     $&..$$.... +$@  @@@@@@$+$&@.@@ .. %",
"&... ..+&@.@+.     .$$ +  @  $$. +$.....& $+ @@ +@@+&@+&$ @. @.$",
"$.....  ...+.......@ .. ....@. ..@.+  ..@..+$   +@ @$...+$... .+",
"*&+$&%%&$+&&@@$+$$&&%%#%&@+$$$%$$$&%$@++$&%%##%$$$$$%%#&&$%&+@%*",
"###*#*#*#***#*#*#**########****#%*#***#*#*#*************#######*",
"&+.   @@@ @@ .    @ @   @.    @  @ @++. @  @++@@+@@@$@@@ . ...@$",
"$+ ....... @ ++.. .+... @@+..+@..@ .. @@... $@.  &+ @+. .....@@$",
"*&++$&%%%&%##%%&&&$$&%%&&&&%%$$++$&&&$%&%&%$$&%%%%%%%%#%%%#%&+%*",
"%***#***#*#*****#*#*#***#***#*******#*****#*************#***#*##",
"%$@ @@@ +$$+$$$ @++++@$$&$$+$@+&$ +@@@$&&+++$+&+$+$&&&%+$++@@ &%",
"% $$+$+@@@@++@ @@+@+$+   @+$$+$$+$  ++ . @+$&& @$$ +@@ +$$$+++.&",
"# $+$+$+++@@@@$$%$  + +++$$@&#&$&&#$ @$$$$&$+@%*%@++$@@@+++$&$ %",
"#+ @@+@@... $#&&$%%$.@ @  &#$+ ++@+&%$...@@@@#%&%%&$ .... @+  $*",
"##& +  @$&#%&$&&&$&&#+@ $#%&&+$$&$&$&%#+@ @&*&&$&&%&%%&$@@@ @$%#",
"%#$+. .++@ ++$@@+$+@+$.@+@@+++ +++++@$$&@@++@+@@@@@+ @ $+@@++@%#",
"&.@@+++@   @+++++@$+$++$$@@@$$$@@@+@@@$@@@+@+@++$++@@@@@$@+$$$ &",
"&&&#%%&%&%&%&%%####%&%&%&%%#%%&#%###&%%%%%%#%#####%#%%%%&#%#%##%"};
