/* XPM */
static char * stone_xpm[] = {
"64 64 14 1",
" 	c #B2977F",
".	c #B59B86",
"+	c #BAA08B",
"@	c #C1A791",
"#	c #A48B77",
"$	c #A88F7B",
"%	c #AB927E",
"&	c #AF9683",
"*	c #9F8674",
"=	c #998070",
"-	c #92796B",
";	c #887065",
">	c #78635C",
",	c #6C5852",
",,>>>>>;;>>>>>>>,,>,>,>>>;;;>,>>>>;>>>>>>>,>>,,,,,>,>>,,>>>>,>,,",
">-;;;--=---===-*#=--*#=-*;--=-;;-=--==*=*====---;;=-===-=----=-,",
">-;;-==$$%%#=$&&&.+...&.%##***=;--;---#$%$*&$#$%#&..&&.+%.@&&.*>",
">---==#..&&$#%&.$&%&%$%&.&$*$%=>;;;--***=*=*#*#%% $$%%&&&&$=$.*;",
">---*#.&+..&&%.%$%&%+**%++$*.&-,;;;;-==#**-&.#$**#*$#&%%%&#**$*>",
">--=$+&.++@+&@@.&$%.&@.++@.&@ =,;;;>-%#-*$*+ .*##**$%%%%&&*%#%=,",
",=$+++++@++ +@@@@@@@@@@@@@+@@%-,-;$--$##%$ $ $#*#*##%%&&.#&%% =>",
">-&&&&+@+.+  @+++..+$+%++@@+@&-,;;$;=..  $+%$$#****#%%%.%%&%$ ->",
",;+*&%&+++#% .+++..@$#%++@..@&;,--=-.#$ $ %*#%*####%%$%$&&&&$$->",
",;$&&$**#$=# +++.&&+%&$.++..+%>>-*=;#*+++$$*=##%###$$$$&&%%%$.=>",
",=*%&$&$$$&+%%&&&&..&..&++..+#;>=== *@..&%%#*###$#$#%%%$.&%$*.=;",
">=#%$%%&.$.+#**&.&&....+..+++$;,*-#.+..%$%$#*=#**$$##%$$%$&$$&=>",
">;$%$&%$##.@$&*#%%&$&...$+@..%-,-= +$%##%%$#*=#%%%%&#$%&%%$$$#->",
";-#%.&%.&=&+..&#&+&#%%#%$.. ..*,-%%$%%$$&%#*$=$**#$%=$%&. .&=*-,",
";;#%%$&%%$++&&..$.%&%&&%&.. .+=,;= ##%%$$=#*###*#*#***&$ &%**&=>",
";-*$$=%%#*.$&&%..%%%%&%$$...++;,;;$$#%%$%#*#*#=*.& %.$.%%#%%* =>",
",=$$&$%&&&.%%%%%&&%$$&#.$...+@>,;;- $ &%$**#***$#%&&..... $==$=>",
",-%##$&.&.$%$&&&%&$*%#*.% ++.&;,;-; $ $%####**%#& % %.  %&*==%=>",
">=&$**$&%&=%$$%.%%%.$%.$.++@&#-,;-;% .%$*$$#*#**  %$. ####-=#+-,",
">=$$*#$%&.$#%%&%#&.&%&.$.@@#%*-,>;-=+%$#####*=$*. .+%$=**#==#+-;",
",=%&$*$*#&$*##$%...+&%&&+@.$**=>;;==%.%*$$**#=*#. #*=;=**#*=#.=>",
">=.&=-##$&%*#$%&.+.&&$%.+@$$=*=,>>;=*$ $**##%*$. $$$%#=*#$**$ =,",
">=.*###$+&#&$*$&&&%%&&.++.#*-=-,>>;*##+ %#% *$+. $ .%****%*#$$;,",
";=$%&$#$+#$&$$$&&%&&&++@+#*--*-,,;;-##...+.%#.. ....=#**$$$**#->",
";=%*&#$&.#&%$%%&&&%%&&+@###-==;,>>-=$$+ #*###$. #*$*=-=##%#=*=-,",
">;&**#$+$#%%#%&&%.%.%.+@%$=-#-;,;;-*#- + . .#*%*--=*===#$##=#*->",
",;-$#$$+.*-$##$##%&%&.++#==---;,;-;==#* ..++#--=----==-===*** ->",
",>-**$#.&--*=***$&%%&%.$=--;;*-,>--==-$+.  .=;*--=-=-;;-====*$;>",
">;=*#$#&$==#=***%#%%$.=-=-=;-=;>>;;;***  $$*=--;**##=--*#=---=;>",
">;*=*%%.%#$%$*###### *-==**==;;,>;;>-==#$#=-*-*==--;--;=----==->",
",;--;--=----;=;==----*--*;=-->,>,;;;--$=;;;=;---;;;;;-;>>;;;;;;,",
",,>,,,,>,,,>,,,,>>>,,,;->,,>,>;;,,>>>,,,,,>,,>>,,>,,,>,,>,>>>>,,",
">>>>>,>>>,,>>,,,,,,,,,,,>>>>>;;;;>>>>>>>,,,,,,,,>>>>>>;>>>>>>>>;",
"*****=-=--;;-;,>>>>>>;;;=;--=*===*=*****===$***==*##**-*=*##==$*",
" &&&#&****=--*>>>>;;;;--=--==*-=**=*=-==#&#.==$$=##%#*==##*$&+&%",
"%$##%#=**%*#**=,>;-;-*==-==$%==*#*#=**====%&%$&+$%%%*-==&%$%$&.&",
"####$#*$$==*&*;>;;--*==-==*#=--****=-=#====*+ ..%+.&$**=%%##=*#$",
"==%###%$==&%=%*,;=--#--==#***=-==**#--#$*#*# .%& &..++%##%=#$$$*",
"=#$##=#**=*.=&#>>=;-$--%*-=**=-----#=-=$#%%. %$#$%$$%&++ .$.&$#=",
"*$#%#%&&%**$*%#>>--=**%*=-===#===-**=* $*#. $##%#&%##%$#%%#&&**=",
"#=**&&%%&.&#&.=,>-=$=#-**-=***=*==**==$  $ %$$$#$%#$#$##$##*---=",
"***#$#.+@.@ $&*,>-#=----=-=***-==#==**##  **$$$$%#**$##*$##**=*#",
"*$%##**% %..&.=>>;%===---*-*#=*===##-$%.%#$$====$%$**##-#$**##=#",
"$#&#%*##&&&#  =>>;#-=---=#---*$###==#% %$*$$%****=*$#*===-==***=",
"*$$%%#$&$#&&$.=>>;==--;#*---- ###**-$.%$%$%$$$%#&#$*$==#*##-$#==",
"*%$&#$*#%#&$#.=;>---=-*--=*=$$###$=#..$*#%$##$&%#$$=-=*$%#%#=***",
"$%#*#*#%$#$$%.*>>;-*--#;-#-**###$**. %%$#$###%$%$$##*###%#$#$*##",
"*&*=$&%&$$=$$%%>>;-*-$$-==*##**##*.% $$%#*##$%$%&&$#*$*#$%$$#%#*",
"%$*$%&&%&%*## *,,;-*-#**===###**##  #$#$$$%&%#&%$%&.$%#**##%$$#$",
"%%$&$$=#$$&$#+=,;===-=**==*#%    $.$#*#%%#=&%%%%$%%&%$&$$$==##*$",
"=%###**%&#$$#.-,>---=#==***%%%.*# %%%#*&.%*$$#$%$##%%%%#&#**$#$#",
"-#*#*%%&%####+>,>;=-*#% $#$$$ $#%&%%%#$$$&$%$%#%&&&%%*%&%*$#*=#=",
"-*###$##&&### >,;-=*=**#$# $  *=.$#$%%%%%&&%$$&&&&%$$$$$$%$#=*=-",
"*****$$$%&%#$$>,;-=#*$#**#..$*$% #$$$%#%$$&%$#%&#&&$&$=$%%$%*=**",
"**$*##$%#%&#%*>,-=*$#$%&##+% $  #$#$$%##$&%&$**%$*%.%$.$*%%%#*=*",
"=**#$#&%&%&#%#;,-**#=&..$%     %$$#$%&&**&%%$$$$&.&$%&%$#%&$**=*",
"**#*$-#&&$&$%&;,;$# % +@+.$     .  $$  %&%$$$$$%&&&$&&$*$$###**=",
"*=*$*%#**%%$%.;,>*##  %.+.+.@. %   % % .  $$##*.&%%& .$$$$#$#*#*",
"-###*%%$$#%##%-,;$$.+++##%+.% +  ...  .%$ %   $ +%=%.. $$%%%$*=#",
"##$$*$##$#%$%$=,;$-=#$$%#;--;-*=**==;-#*=;=*=--*%$% ##$%#$#***-#",
"**=-**###$*** =,-;----=-#*----;>;----;---;---;;----======**#*===",
"**==-==*=-=--=->;;--;>;;;-=*=-;;-;=-=--=*-*===*=*$**==*%##$-----",
";;;-=-;,;;;;>;>>;;;;;>>;>>;;;->>>=-;;-;;>;---;;;;>--;-;>;;>>;;;;",
",,,,,,,,,,,,,,,,,,,,,,,,,,,,>>>,,,,,,,,,,,,,,,,,,,,,,,,,,,,,,,,,"};
