/* XPM */
static char * box_xpm[] = {
"60 60 16 1",
" 	c #7E7E81",
".	c #68696F",
"+	c #7D7D80",
"@	c #91DFAB",
"#	c #90DBA9",
"$	c #73BC8B",
"%	c #7B7B7E",
"&	c #56A06E",
"*	c #90DDAA",
"=	c #7F8282",
"-	c #7E8182",
";	c #7E8082",
">	c #7E7F81",
",	c #7C7C80",
"'	c #7C7C7F",
")	c #7E7D81",
"                                                            ",
"  .                                                      .  ",
" ...+@@@@@@###$$$$##########$$$$@@@@@@@@#@$$$$@######## ...%",
"  .  @@@@@@@@$$$$$$@@@@@@@@$$$$$$@@@@@@@@$$$$$$@@@@@@@@  . +",
"      @@@@@@$$$@@$$$@@@@@@$$$@&$$$@@@@@@$$$@@$$$@@@@@@   %  ",
"  @@   @@@@$$$@@@@$$$@@@@$$$@@&&$$$@@@@$$$@@@@$$$@@@@   @*  ",
"  @@@   @@$$$@@@@@@$$$@@$$$@@@&&&$$$@@$$$@@@@@@$$$@@   @@@  ",
"  @@@@   $$$@@@@@@@@$$$$$$@@@@&&&&$$$$$$@@@@@@@@$$$   @@@@  ",
"  @@@@@   $@@@@@@@@@@$$$$@@@@@&&&&&$$$$@@@@@@@@@@$   @@@@@  ",
"  @@@@@$   @@@@@@@@@@$$$$@@@@@&&&&&$$$$@@@@@@@@@@   $@@@@@  ",
"  @@@@$$$   @@@@@@@@$$$$$$@@@@&&&&$$$$$$@@@@@@@@   $$$@@@@  ",
"  @@@$$$&@   @@@@@@$$$@@$$$@@@&&&$$$@@$$$@@@@@@   @&$$$@@@  ",
"  @@$$$&&@@   @@@@$$$@@@@$$$@@&&$$$@@@@$$$@@@@   @@&&$$$@@  ",
"  @$$$&&&@@@   @@$$$@@@@@@$$$@&$$$@@@@@@$$$@@   @@@&&&$$$@  ",
"  $$$&&&&@@@@   $$$@@@@@@@@$$$$$$@@@@@@@@$$$   @@@@&&&&$$$  ",
"  $$&&&&&@@@@@   $@@@@@@@@@@$$$$@@@@@@@@@@$   @@@@@&&&&&$$  ",
"  $$&&&&&@@@@@$   @@@@@@@@@@$$$$@@@@@@@@@@   $@@@@@&&&&&$$  ",
"  $$$&&&&@@@@$$$   @@@@@@@@$$$$$$@@@@@@@@   $$$@@@@&&&&$$$  ",
"  @$$$&&&@@@$$$@@   @@@@@@$$$@@$$$@@@@@@   &@$$$@@@&&&$$$@  ",
"  @@$$$&&@@$$$@@@@   @@@@$$$@@@@$$$@@@@   &&@@$$$@@&&$$$@@  ",
"  @@@$$$&@$$$@@@@@@   @@$$$@@@@@@$$$@@   &&&@@@$$$@&$$$@@@  ",
"  @@@@$$$$$$@@@@@@@@   $$$@@@@@@@@$$$   &&&&@@@@$$$$$$@@@@  ",
"  @@@@@$$$$@@@@@@@@@@   $@@@@@@@@@@$   &&&&&@@@@@$$$$@@@@@  ",
"  @@@@@$$$$@@@@@@@@@@$   @@@@@@@@@@   $&&&&&@@@@@$$$$@@@@@  ",
"  @@@@$$$$$$@@@@@@@@$$$   @@@@@@@@   $$$&&&&@@@@$$$$$$@@@@  ",
"  @@@$$$@@$$$@@@@@@$$$@@   @@@@@@   @@$$$&&&@@@$$$@@$$$@@@  ",
"  @@$$$@@@@$$$@@@@$$$@@@@   @@@@   @@@@$$$&&@@$$$@@@@$$$@@  ",
"  @$$$@@@@@@$$$@@$$$@@@@@@   @@   @@@@@@$$$&@$$$@@@@@@$$$@  ",
"  $$$@@@@@@@@$$$$$$@@@@@@@@      @@@@@@@@$$$$$$@@@@@@@@$$$  ",
"  $$@@@@@@@@@@$$$$@@@@@@@@@@    @@@@@@@@@@$$$$@@@@@@@@@@$$  ",
"  $$@@@@@@@@@@$$$$@@@@@@@@@@    @@@@@@@@@@$$$$@@@@@@@@@@$$  ",
"  $$$@@@@@@@@$$$$$$@@@@@@@@      @@@@@@@@$$$$$$@@@@@@@@$$$  ",
"  @$$$@@@@@@$$$@&$$$@@@@@@   @@   @@@@@@$$$@@$$$@@@@@@$$$@  ",
"  @@$$$@@@@$$$@@&&$$$@@@@   @@@@   @@@@$$$@@@@$$$@@@@$$$@@  ",
"  @@@$$$@@$$$@@@&&&$$$@@   @@@@@@   @@$$$@@@@@@$$$@@$$$@@@  ",
"  @@@@$$$$$$@@@@&&&&$$$   @@@@@@@@   $$$@@@@@@@@$$$$$$@@@@  ",
"  @@@@@$$$$@@@@@&&&&&$   @@@@@@@@@@   $@@@@@@@@@@$$$$@@@@@  ",
"  @@@@@$$$$@@@@@&&&&&   $@@@@@@@@@@$   @@@@@@@@@@$$$$@@@@@  ",
"  @@@@$$$$$$@@@@&&&&   $$$@@@@@@@@$$$   @@@@@@@@$$$$$$@@@@  ",
"  @@@$$$@@$$$@@@&&&   #@$$$@@@@@@$$$@@   @@@@@@$$$&@$$$@@@  ",
"  @@$$$@@@@$$$@@&&   *@@@$$$@@@@$$$@@@@   @@@@$$$&&@@$$$@@  ",
"  @$$$@@@@@@$$$@&   @@@@@@$$$@@$$$@@@@@@   @@$$$&&&@@@$$$@  ",
"  $$$@@@@@@@@$$$   @@@@@@@@$$$$$$@@@@@@@@   $$$&&&&@@@@$$$  ",
"  $$@@@@@@@@@@$   @@@@@@@@@@$$$$@@@@@@@@@@   $&&&&&@@@@@$$  ",
"  $$@@@@@@@@@@   $@@@@@@@@@@$$$$@@@@@@@@@@$   &&&&&@@@@@$$  ",
"  $$$@@@@@@@@   $$$@@@@@@@@$$$$$$@@@@@@@@$$$  =&&&&@@@@$$$  ",
"  @$$$@@@@@@   @@$$$@@@@@@$$$@@$$$@@@@@@$$$@@  -&&&@@@$$$@  ",
"  @@$$$@@@@   @@@@$$$@@@@$$$@@@@$$$@@@@$$$@@@@  -&&@@$$$@@  ",
"  @@@$$$@@   @@@@@@$$$@@$$$@@@@@@$$$@@$$$@@@@@@  ;&@$$$@@@  ",
"  @@@@$$$   @@@@@@@@$$$$$$@@@@@@@@$$$$$$@@@@@@@@  >$$$@@@@  ",
"  @@@@@$   @@@@@@@@@@$$$$@@@@@@@@@@$$$$@@@@@@@@@@  >$@@@@@  ",
"  @@@@@   $@@@@@@@@@@$$$$@@@@@@@@@@$$$$@@@@@@@@@@$  >@@@@@  ",
"  @@@@   $$$@@@@@@@@$$$$$$@@@@@@@@$$$$$$@@@@@@@@$$$   @@@@  ",
"  @@@   @@$$$@@@@@@$$$@&$$$@@@@@@$$$@@$$$@@@@@@$$$@@   @@@  ",
"  @@   @@@@$$$@@@@$$$@@&&$$$@@@@$$$@@@@$$$@@@@$$$@@@@   @@  ",
"      @@@@@@$$$@@$$$@@@&&&$$$@@$$$@@@@@@$$$@@$$$@@@@@@      ",
"  ., @@@@@@@@$$$$$$@@@@&&&&$$$$$$@@@@@@@@$$$$$$@@@@@@@@  .  ",
" ...'@@@@@@@@@$$$$@@@@@&&&&&$$$$@@@@@@@@@@$$$$@@@@@@@@@ ... ",
"  ., ))))))))))))))))))))))))  )))))))))))    )))))))))  .  ",
"                                                            "};
