/* XPM */
static char * death_xpm[] = {
"60 60 6 1",
" 	c #53674C",
".	c #74776E",
"+	c #3E584B",
"@	c #D4D4D2",
"#	c #9C1A1C",
"$	c #000000",
"    .   + +. . ++++      + + +    +    + +++       +  .     ",
"     .  + .+ .++   +   ++ +++ ++ + +  +++++ +++    +   .    ",
"........+.. +.+++ ++ +  + ++. ++    +++..++.++++      ++++ +",
"                         @@@@  @@@@                         ",
"                      @@@@@@@  @@@@@@@ ++++ +++.. + .+      ",
"    + + + .++++  ++@@@@@@@@@@  @@@@@@@@@@      +++ . +.     ",
"   + ++ + ++++ +@@@@@@@@@@@@@  @@@@@@@@@@@@@          +++ . ",
"++ + ++   +++@@@@@@@@@@@@@@@@++@@@@@@@@@@@@@@@@            +",
"+++  + + ++@@@@@@@@@@@@@@@@@@+ @@@@@@@@@@@@@@@@@@      .    ",
"  +    + .@@@@@@@@@@@@@@@@@@@  @@@@@@@@@@@@@@@@@@@+      .+ ",
"+++ ++    @@@@@@@@@@@@@@@@@@@##@@@@@@@@@@@@@@@@@@@  ++      ",
"          @@@@@@@@@@@@@@@@##@##@##@@@@@@@@@@@@@@@@          ",
"        +@@@@@@@@@@@@@@@@###@##@###@@@@@@@@@@@@@@@@   . ..  ",
"+.. ..   @@@@@@@@@@@@@@@###@@##@@###@@@@@@@@@@@@@@@+        ",
"         @@@@@@@@@@@@@@###@@@##@@@###@@@@@@@@@@@@@@.   .    ",
"+  +++ ++@@@@@@@@@@@@@###@@@@##@@@@###@@@@@@@@@@@@@+ ..     ",
"         @@@@@@@@@@@@@##@@@@@  @@@@@##@@@@@@@@@@@@@         ",
"  +++. +.@@@@@@@@@@@@@@@@@@@@+ @@@@@@@@@@@@@@@@@@@@         ",
"++       @@@@@@@@@@@@######@@ .@@######@@@@@@@@@@@@+        ",
"        @@@@@@@@@@@@@######@@@@@@######@@@@@@@@@@@@@    .   ",
"   .+ ++@@@@@@@@@@@@@@@@@@@@@@@@@@@@@@@@@@@@@@@@@@@@       +",
"       @@@@@@@@@@@@@@@##@@@@@@@@@@@@##@@@@@@@@@@@@@@@+++    ",
"     @@@@@@@@@@@@@@@@@###@@@@##@@@@###@@@@@@@@@@@@@@@@@ .+  ",
"...@@@@@@@@@@@@@@@@@@@@###@@@##@@@###@@@@@@@@@@@@@@@@@@@@   ",
"++@@@@@@@@@@$@@@@@@@@@@@###@@##@@###@@@@@@@@@@@$@@@@@@@@@@  ",
"+@@@@@@@@@@@$$$@@@@@@@@@@###@##@###@@@@@@@@@@$$$@@@@@@@@@@@ ",
" @@@@@@@@@@@@$$$$@@@@@@@@@##@##@##@@@@@@@@@$$$$@@@@@@@@@@@@ ",
" @@@@@@@@@@@@$$$$$$@@@@@@@@@@##@@@@@@@@@@$$$$$$@@@@@@@@@@@@.",
" @@@@@@@@@@@@@$$$$$$$@@@@@@@@@@@@@@@@@@$$$$$$$@@@@@@@@@@@@@ ",
" @@@@@@@@@@@@@$$$$$$$$$@@@@@@@@@@@@@@$$$$$$$$$@@@@@@@@@@@@@ ",
".+@@@@@@@@@@@@$$$$$$$$$$$@@@@@@@@@@$$$$$$$$$$$@@@@@@@@@@@@+ ",
".+@@@@@@@@@@@@@$$$$$$$$$@@@@@@@@@@@@$$$$$$$$$@@@@@@@@@@@@@+ ",
"+ @@@@@@@@@@@@@$$$$$$$$$@@@@@@@@@@@@$$$$$$$$$@@@@@@@@@@@@@+ ",
" +@@@@@@@@@@@@@@@$$$$$$@@@@@@@@@@@@@@$$$$$$@@@@@@@@@@@@@@@  ",
" ++@@@@@@@@@@@@@@@@@@@@@@@@@@@@@@@@@@@@@@@@@@@@@@@@@@@@@@   ",
".+ @@@@@@@@@@@@@@@@@@@@@@@@@@@@@@@@@@@@@@@@@@@@@@@@@@@@@@. .",
"   @@@@@@@@@@@@@@@@@@@@@@@@@@@@@@@@@@@@@@@@@@@@@@@@@@@@@@+  ",
"    @@@@@@@@@@@@@@@@@@@@@@@@@@@@@@@@@@@@@@@@@@@@@@@@@@@@    ",
"    @@@@@@@@@@@@@@@@@@@@@@@@@@@@@@@@@@@@@@@@@@@@@@@@@@@@   +",
" +++ @@@@@@@@@@@@@@@@@@@@@@@@@@@@@@@@@@@@@@@@@@@@@@@@@@   . ",
"      @@@@@@@@@@@@@@@@@@@@@@@@@@@@@@@@@@@@@@@@@@@@@@@@+     ",
"++     .@@@@@@@@@@@@@@@@@@@@$@@$@@@@@@@@@@@@@@@@@@@@        ",
"           @@@@@@@@@@@@@@@@$$@@$$@@@@@@@@@@@@@@@@++++       ",
"++.+. ..++ . ++@@@@@@@@@@@$$$@@$$$@@@@@@@@@@@+++++    + ++  ",
" ++++ . ++ + +++ + +@@@@@@@$$@@$$@@@@@@@+ ++++    ++ + +++++",
" ++++ +++++  +.+ + +  +@@@@@$@@$@@@@@. ++     +   ++  ...   ",
"     .  +++  +++  + +@@@@@@@@@@@@@@@@@@   ++++....++  +     ",
"                    @@@@@@@@@@@@@@@@@@@@++++++...++         ",
"++      +.+         @@@@@@@@@@@@@@@@@@@@             +++.  +",
" +++.. .          ++@@@@@@@@@@@@@@@@@@@@      +  +  +   .   ",
"   +++ ++.++ ++ ..   @@@@@@@@@@@@@@@@@@                  .. ",
"                     @@@@@@@@@@@@@@@@@@+ +++.+.+ .+ .+ +++  ",
"++   ++ +..+  + +++++@@@@@@@@@@@@@@@@@@++ +++++ ++ +  ++  + ",
"                     @@@@@@@@@@@@@@@@@@                     ",
" +...    ... ++ +++++@@@@@@@@@@@@@@@@@@ ++ + .+    +       .",
"  ++ +..  ++ ++ .+++  @@@@@@@@@@@@@@@@.+       ++ .. .++    ",
"  +++.+++    ++ +++ +.@@@@@@@@@@@@@@@@++  . .++++   ++.    +",
"    ++....       + +. @@@@@@@@@@@@@@@@  ++++ +   +++.   .   ",
"     +   ..  .       .+@   .@@@@+   @         ++ +   .      ",
"      +++.+     .                .++      +..+    .     ..  "};
