/* XPM */
static char * mob_xpm[] = {
"60 60 8 1",
" 	c #53674C",
".	c #74776E",
"+	c #3E584B",
"@	c #A55A01",
"#	c #814701",
"$	c #000000",
"%	c #B5B5B5",
"&	c #D4AD3D",
"    .   + +. . ++++      + + +    +    + +++       +  .     ",
"     .  + .+ .++   +   ++ +++ ++ + +  +++++ +++    +   .    ",
"........+.. +.+++ ++ +  + ++. ++    +++..++.++++      ++++ +",
"                                                            ",
"                                       ++++ +++.. + .+      ",
"    + + + .++++  ++ + ++  +                    +++ . +.     ",
"   + ++ + ++++ + ++  ++ +              .              +++ . ",
"++ + ++   ++++  +++      + ++++ + ++ +. . .++              +",
"+++  + + ++++           +. ..+  + +. +++               .    ",
"  +    + .     +++    + ++ .+   + ++ .+   +++++++ +      .+ ",
"+++ ++                                           +  ++      ",
"                                                +           ",
"        +  + ++..   .+ ++.+   +  +  + .  + ++.++      . ..  ",
"+.. ..       ++++  +++ ++++ + +  + .+ + ++ +..++ +++        ",
"                                              +++++.   .    ",
"+  +++ ++++  ++ .+ +          .  +  +  +++ ..      + ..     ",
"                                                            ",
"  +++. +.+  ++ ..  ++ ++.+ + +  +  ++  +++ ++++++           ",
"++          ++ ++  ++ ++. ++  . +  ++ ++         .++        ",
"                                                        .   ",
"   .+ ++++  + .. + ++ ++. +  + ++  ++  +++ ++++            +",
"                                                +.++ +++    ",
"        ++   +++ + ++ +++    + ++ +  + ++ +++++++++++ + .+  ",
"...+ ++.                                                    ",
"+++. .+ +.  ++. ++ ++ ++  +   +++ +  + ++ . .++++++++       ",
"+ ++ +++++  ++. +  ++ ++ ++   .+. .  + ++ +           +  .  ",
" +++ .+ ++  +++ ++ ++ ++ + +  +++ +        ..+.++.+.+ +++.  ",
" +++  +.++  ++     ++ +  + +  +      + ++ +++++.+.+.+ +..+ .",
" .++ +.++ +    .++ ++  +       +. .  + + .+..++++.+ + ++    ",
"                                             ++.+++ +     + ",
".+               + ++  + + +  ++ +   ..   +.+         + . + ",
".++.           .++ ++  + +   +++ ++  .. .++           +...+ ",
"+     .+. +   +                            ++++++ +++   +++ ",
" +++ + +  +   .+++ + + +  +  +++ +.  .. .++++++++++++ +     ",
" ++  .+++ + + +++++  + +   + +++ ++  ++ ++++                ",
".+ .   ++ ++  +++.+  + +   + +++ ++         +++++ +++ +  . .",
"                                           ++++.+.+.+ ++.+  ",
"                                                 .+++       ",
"                                                      +    +",
" +++ .++++ +        +++   + +++ +++   + +.+++++++ +.      . ",
"                                               +..+.+ +     ",
"++     .++ .   .  ++ ++   + ++ + + +  + +.+++++             ",
"                                                 ++++       ",
"++.+. ..++ . ++ + ++ + ++   + ++++  +  +++++++++++    + ++  ",
" ++++ . ++ + +++ + ++ +++  +  ..+.  +. ++ ++++    ++ + +++++",
" ++++ +++++  +.+ + +  +++   . ..+. +.. ++     +   ++  ...   ",
"     .  +++  +++  + + +++  + +++++        ++++....++  +     ",
"                            @##@   ++.  ++++++...++         ",
"++      +.+                @@@@@@                    +++.  +",
" +++.. .          ++   +  +#@##@# ++++        +  +  +   .   ",
"   +++ ++.++ ++ ..         #@##@#                        .. ",
"                           @@@@@@ ++.+ + +++.+.+ .+ .+ +++  ",
"++   ++ +..+  + ++++++ +  +@@##@@   ++ ++ +++++ ++ +  ++  + ",
"                         $%@@%%@@%$                         ",
" +...    ... ++ +++++ +  %%%%&&%%%% +   ++ + .+    +       .",
"  ++ +..  ++ ++ .+++  +  %&%%&&%%&% . .+       ++ .. .++    ",
"  +++.+++    ++ +++ +.   %%%%%%%%%%   ++  . .++++   ++.    +",
"    ++....       + +.     % +$$  %      ++++ +   +++.   .   ",
"     +   ..  .       .++   .++. +             ++ +   .      ",
"      +++.+     .                .++      +..+    .     ...."};
