/* XPM */
static char * neon_2_xpm[] = {
"60 60 50 1",
" 	c #53674C",
".	c #74776E",
"+	c #3E584B",
"@	c #000000",
"#	c #493467",
"$	c #538BEC",
"%	c #D9D966",
"&	c #1A4DB1",
"*	c #B76293",
"=	c #CD91AF",
"-	c #A6D4FE",
";	c #8A98CF",
">	c #6B0C1C",
",	c #8D2753",
"'	c #FFFFFF",
")	c #CE3611",
"!	c #DD5818",
"~	c #EEACAF",
"{	c #933A9F",
"]	c #253153",
"^	c #DB9129",
"/	c #8C6C45",
"(	c #FBD16E",
"_	c #4FA9F8",
":	c #455688",
"<	c #B4B1CF",
"[	c #ABA4D3",
"}	c #345693",
"|	c #CECBEE",
"1	c #7B98CA",
"2	c #9239A2",
"3	c #B37DBA",
"4	c #98CDFC",
"5	c #7271C8",
"6	c #587AB8",
"7	c #6F37A1",
"8	c #DF5DE7",
"9	c #9998D8",
"0	c #04D7FC",
"a	c #8986F1",
"b	c #FE00E6",
"c	c #5D84C4",
"d	c #E17249",
"e	c #659AF4",
"f	c #C9C5D6",
"g	c #99959D",
"h	c #723AA2",
"i	c #505590",
"j	c #817EB1",
"k	c #C5ECFF",
"    .   + +. . ++++      @@@@+    @@@@ + +++       +  .     ",
"     .  + .+ .++   +   +@####@@@@@####@++++ +++    +   .    ",
"........+.. +.+++ ++ + @#$$$$########%#@.++.++++      ++++ +",
"                       @#%$##$$$$$$$&#$#@                   ",
"                      @#$$#&&$&&$$&$$&#$@++ +++.. + .+      ",
"    + + + .++++  ++ + @#&#$$$&$$$&$$$&%#@      +++ . +.     ",
"   + ++ + ++++ + ++  ++@#%%$&$$$$$$&$$$$#@            +++ . ",
"++ + ++   ++++  +++    @#$%%&$$$$$&$&&$$#@.++              +",
"+++  + + ++++          @#$%&$$$$$$****&$#@             .    ",
"  +    + .     +++    @#$$$&$$$$$*===**&$#@++++++ +      .+ ",
"+++ ++                @#$$$&$$$$*=====*&$#@      +  ++      ",
"                      @#$$$&$$$$*=-=-=*&&$#@    +           ",
"        +  + ++..   .@#$$$&$$###=====##&&$#@+.++      . ..  ",
"+.. ..       ++++  ++@#$$$%$$#;>#===#>,&$&$#@.++ +++        ",
"                    @#$$#%%$$&')!=-$')!&$&#@  +++++.   .    ",
"+  +++ ++++  ++ .+ + @##@%&$&$')!~~~')!%$#@..      + ..     ",
"                      @@#%$&$#=~~~~~~~=%$#@                 ",
"  +++. +.+  ++ ..  ++ ++@#$&%#*=~~~~~=%%&#@++++++           ",
"++          ++ ++  ++ ++@#$%%%##====&%#%$#@      .++        ",
"                         @@&%%&{{{{{%#@#$#@             .   ",
"   .+ ++++  + .. + ++ ++.@##%%{{'']]]##@#@ ++++            +",
"                        @#~]]'{'']]]#~~#@       +.++ +++    ",
"        ++   +++ + ++ ++@#^^/](]^^^^#~~#@ +++++++++++ + .+  ",
"...+ ++.  @           @@@#^(/_]:]((^#~<#@@                  ",
"+++. .+ +@#@++. ++ ++@###~#__]:[[](^/#~<##@ .++++++++       ",
"+ ++ ++++@~#@@.@@  @@#]]~~#}}}}][|][:#~~]]#@          +  .  ",
" +++ .+ @##%##@##@@###]]]~_}}}}}}[[[:#~]]]#@.+.++.+.+ +++.  ",
" +++  +.@#~}%%#%%##111]]]=_}}}}}}____#]]]##@+++.+.+.+ +..+ .",
" .++ +.++@##}}}%%11}1}}]]#@2332322322#]]#}}#@++++.+ + ++    ",
"        @#~~~}}%%}#######@^]333333233###}}}1#@@.+++ +     + ",
".+       @#####%%#@@@@@@@@]^]4_5###^^6@@##}}###@      + . + ",
".++.      @@@@###@ ++ @@@]'44___5]#^^###@@#}%%%#@     +...+ ",
"+     .+. +   @@@    @##]]4_____555]]]]]#@#%%%#%#@@++   +++ ",
" +++ + +  +   .+++ +@#66______]]]7755]]]]##%}}%}###@+ +     ",
" ++  .+++ + + +++++@#________]]]##]77555894#}}}}%#~#@       ",
".+ .   ++ ++  +++.@#___^0__]]]]]@#]]7777894##~#@}~#@+ +  . .",
"                  @#___#^]]]]]]#@@#]]]^_89ab##~@#~@.+ ++.+  ",
"                  @####]c]]]]]#@ @#]]]]^89abbb@@@@+++       ",
"                   @@@#]c]d]]]#@ @#]]]]]89a^##@       +    +",
" +++ .++++ +        +@#c]]]]]#@ ++@#d]]]c9##@@+++ +.      . ",
"                    @#]c]]]]#@    @#]]]]c#@@   +..+.+ +     ",
"++     .++ .   .  ++@#]c]]]]@+ + +@#]]]]c#@++++             ",
"                   @#]c}}}1#@      @#}1]c#@      ++++       ",
"++.+. ..++ . ++ + @#]]}}}}#@+ ++++ @#}}1]##@++++++    + ++  ",
" ++++ . ++ + +++ @#]}]}}}#@+  ..+. @#}}1]]]#@+    ++ + +++++",
" ++++ +++++  +.+ @#]e}e##@  . ..+. @#}}#]c]#@ +   ++  ...   ",
"     .  +++  +++ @#]ee#@@  + +++++  @##]cf]#@+....++  +     ",
"                @#]f}#@            ++@@#eec#@+...++         ",
"++      +.+     @#]f#@                 @#gf]#@       +++.  +",
" +++.. .        @#]}#@ +  + +++   ++++ @#ff}#@+  +  +   .   ",
"   +++ ++.++ ++@#]f#@                   @#]]#@           .. ",
"               @#~~#@           . ++.+ +@#~~#@.+ .+ .+ +++  ",
"++   ++ +..+  @#~hhh@+ +  +..  ++   ++ +@hhhh#@ ++ +  ++  + ",
"              @#~h''#@                 @#h''h#@             ",
" +...    ... @#ihhhh#@+  +    ++ ++++  @#hhhhi#@   +       .",
"  ++ +..  ++ @#ijjjjj#@ +. +   + +++. .@#jjjji#@+ .. .++    ",
"  +++.+++    @#ijjj''j#@@@@@@@@@@@@@@@@#jj''j##@+   ++.    +",
"    ++....   @#ff''''f#kkkkkkkkkkkkkkkk#f''''f#@ +++.   .   ",
"     +   ..  .@########kkkkkkkkkkkkkkkkk######@+ +   .      ",
"      +++.+    @@@@@@@@@@@@@@@@@@@@@@@@@@@@@@@    .     ...."};
