/* XPM */
static char * neon_3_xpm[] = {
"60 60 48 1",
" 	c #53674C",
".	c #74776E",
"+	c #3E584B",
"@	c #000000",
"#	c #493467",
"$	c #1A4DB1",
"%	c #538BEC",
"&	c #D9D966",
"*	c #B76293",
"=	c #CD91AF",
"-	c #A6D4FE",
";	c #8A98CF",
">	c #6B0C1C",
",	c #8D2753",
"'	c #FFFFFF",
")	c #CE3611",
"!	c #DD5818",
"~	c #EEACAF",
"{	c #933A9F",
"]	c #253153",
"^	c #DB9129",
"/	c #8C6C45",
"(	c #B4B1CF",
"_	c #FBD16E",
":	c #4FA9F8",
"<	c #455688",
"[	c #ABA4D3",
"}	c #345693",
"|	c #CECBEE",
"1	c #7B98CA",
"2	c #9239A2",
"3	c #B37DBA",
"4	c #7271C8",
"5	c #98CDFC",
"6	c #587AB8",
"7	c #6F37A1",
"8	c #9998D8",
"9	c #DF5DE7",
"0	c #FE00E6",
"a	c #5D84C4",
"b	c #E17249",
"c	c #659AF4",
"d	c #C9C5D6",
"e	c #99959D",
"f	c #723AA2",
"g	c #505590",
"h	c #817EB1",
"i	c #C5ECFF",
"    .   + +. . ++++      @@##@@   @##@ + +++       +  .     ",
"     .  + .+ .++   +   +@##$%%#@@@#%&#@++++ +++    +   .    ",
"........+.. +.+++ ++ + @#%%$#########%#@.++.++++      ++++ +",
"                       @#%##%%%%%%%%%#@                     ",
"                       @##$$%$$%%$%%%%#@+++ +++.. + .+      ",
"    + + + .++++  ++ + +@#%%$%$%%$%%%%%#@       +++ . +.     ",
"   + ++ + ++++ + ++  +@#&&%%$%%%%%$%%%%#@             +++ . ",
"++ + ++   ++++  +++   @##&&%$%%$$$%$$%%%#@.++              +",
"+++  + + ++++         @#%&$$%%$*****$$$%#@             .    ",
"  +    + .     +++    @#%%%%%%*=====**$%%#@++++++ +      .+ ",
"+++ ++                @#%$$%%%*======*$%%%#@     +  ++      ",
"                      @#$%$%%$===-=-=*$%#@@     +           ",
"        +  + ++..   .@#%%&$%###=====###$%#@++.++      . ..  ",
"+.. ..       ++++  ++@#%%&$%#;>#===#>,#%$%#@..++ +++        ",
"                     @#%&&%$=')!=-%')!&&%#%#@ +++++.   .    ",
"+  +++ ++++  ++ .+ + @#%&&%$=')!~~~')!&%#@@@.      + ..     ",
"                      @#&&%%$=~~~~~~~=&%#@                  ",
"  +++. +.+  ++ ..  ++ @#%#%%%*=~~~~~=&&&%#@++++++           ",
"++          ++ ++  ++ +@#@#%%%#====&&#&&$#@      .++        ",
"                        @@@#&${{{{{&#@#&$#@             .   ",
"   .+ ++++  + .. + ++ ++@##&&%{''#####@#&#@++++            +",
"                       @#~]]]{''####~~#@#@      +.++ +++    ",
"        +@   +++ + ++@@@#^^/]&]^^^^#~(#@@@+++++++++++ + .+  ",
"...+ ++.@#@         @###~^_/:]<]__^#~~(##@                  ",
"+++. .+ @~#@@+@@++@@#]]~~#::]<[[]_^/#~~]]#@ .++++++++       ",
"+ ++ ++@##&##@##@@###]]]~#}}}}][|][<#~]]]#@           +  .  ",
" +++ .+@#~}&&#&&##111]]]=:}}}}}}[[[<#]]]##@..+.++.+.+ +++.  ",
" +++  +.@##}}}&&11}1}}]]#:}}}}}}::::#]]#}}#@+++.+.+.+ +..+ .",
" .++ +.@#~~~}}&&}#######@@2332322322###}}}1#@@+++.+ + ++    ",
"        @#####&&#@@@@@@@@^#3333332334#@##}}###@.+++ +     + ",
".+       @@@@###@+ ++ @@##^#5:4###^^##@@@#}&&&#@      + . + ",
".++.         @@@++ ++@#6]]#5:::44#^^#]#@@#&&&#&#@@    +...+ ",
"+     .+. +   +     @#6#]]5::]]744]]]]]###&}}&}###@++   +++ ",
" +++ + +  +   .+++ @#6#]55:::]]]774]]]]]8##}}}}&#1#@+ +     ",
" ++  .+++ + + +++++@#:::::::]]]]##]44449855#~#@}~#@         ",
".+ .   ++ ++  +++.+@#::::::]]]]#@#]77779855##~@#~@+++ +  . .",
"                   @#::::]]]]]#@@#]]]]^988^0#@@@@.+.+ ++.+  ",
"                    @##a]]]]]#@ @#]]]]]988^00#@  .+++       ",
"                     @#a]b]]]#@ @#]]]]]9888#@@        +    +",
" +++ .++++ +        +@#a]]]]#@+ @#]]b]]a###@+++++ +.      . ",
"                    @#]a]]]#@    @#]]]]a#@@    +..+.+ +     ",
"++     .++ .   .  +@#]]a]1#@++ + @#]]]]a#@+++++             ",
"                   @#]a}}}#@     @#]}}1a#@       ++++       ",
"++.+. ..++ . ++ + @#]]1}}}#@+ +++@##}}1]#@++++++++    + ++  ",
" ++++ . ++ + +++ +@#}}}]}#@+  ..+.@#}}1]]#@+++    ++ + +++++",
" ++++ +++++  +.+ @#]c}c##@  . ..+.@#}}]]}]#@  +   ++  ...   ",
"     .  +++  +++ @#]cc#@@  + +++++ @##}11]#@++....++  +     ",
"                @#]d}#@            +@@#cc}#@++...++         ",
"++      +.+     @#]d#@                @#ed#@         +++.  +",
" +++.. .        @#]}#@ +  + +++   ++++@#dd}#@ +  +  +   .   ",
"   +++ ++.++ ++@#]d#@                  @#]]#@            .. ",
"               @#~~#@           . ++.+ @#~~~#@.+ .+ .+ +++  ",
"++   ++ +..+  @#~fff@+ +  +..  ++   ++ @#ffff#@ ++ +  ++  + ",
"              @#~f''#@                 @#f''f#@             ",
" +...    ... @#gffff#@+  +    ++ ++++  @#fffhg#@   +       .",
"  ++ +..  ++ @#ghhhhh#@ +. +   + +++. .@#hhhhg#@+ .. .++    ",
"  +++.+++    @#ghhh''h#@@@@@@@@@@@@@@@@#hh''h##@+   ++.    +",
"    ++....   @#dd'''''#iiiiiiiiiiiiiiii#d''''#@  +++.   .   ",
"     +   ..  .@########iiiiiiiiiiiiiiiii######@+ +   .      ",
"      +++.+    @@@@@@@@@@@@@@@@@@@@@@@@@@@@@@@    .     ...."};
