/* XPM */
static char * neon_1_xpm[] = {
"60 60 55 1",
" 	c #53674C",
".	c #74776E",
"+	c #3E584B",
"@	c #000000",
"#	c #493467",
"$	c #538BEC",
"%	c #1A4DB1",
"&	c #D9D966",
"*	c #B76293",
"=	c #CD91AF",
"-	c #A6D4FE",
";	c #8A98CF",
">	c #6B0C1C",
",	c #8D2753",
"'	c #FFFFFF",
")	c #CE3611",
"!	c #DD5818",
"~	c #EEACAF",
"{	c #B0CBF2",
"]	c #253153",
"^	c #933A9F",
"/	c #DB9129",
"(	c #8C6C45",
"_	c #FBD16E",
":	c #B4B1CF",
"<	c #4FA9F8",
"[	c #455688",
"}	c #ABA4D3",
"|	c #345693",
"1	c #CECBEE",
"2	c #7B98CA",
"3	c #9239A2",
"4	c #B37DBA",
"5	c #98CDFC",
"6	c #5756A4",
"7	c #587AB8",
"8	c #7271C8",
"9	c #6F37A1",
"0	c #DF5DE7",
"a	c #9998D8",
"b	c #96E5DF",
"c	c #04D7FC",
"d	c #8986F1",
"e	c #FE00E6",
"f	c #5D84C4",
"g	c #E17249",
"h	c #659AF4",
"i	c #5C94F4",
"j	c #365B97",
"k	c #99959D",
"l	c #723AA2",
"m	c #505590",
"n	c #817EB1",
"o	c #C9C5D6",
"p	c #C5ECFF",
"    .   + +. . ++++    @@@ + +    +@   + +++       +  .     ",
"     .  + .+ .++   +  @###@++ ++ +@#@@+++++ +++    +   .    ",
"........+.. +.+++ ++ + @#$#@. ++ @#%##@..++.++++      ++++ +",
"                      @#&$##@@@@@@#&%&#@                    ",
"                     @##&$%$#########%#@+++ +++.. + .+      ",
"    + + + .++++  ++ +@#$%$%#$$$$$$$$$#%#@      +++ . +.     ",
"   + ++ + ++++ + ++  +@#$$#%%$%%$$%$$%##@             +++ . ",
"++ + ++   ++++  +++   @#$#$$$$$$$%$$$$$#@ .++              +",
"+++  + + ++++          @#&&$$$$$$$$%$$$$#@             .    ",
"  +    + .     +++    @#$#&&%$$$$%%$%%$$#@+++++++ +      .+ ",
"+++ ++               @#$$$&$$$$$******%$$#@      +  ++      ",
"                     @#$$%$$$$$*=====**$$#@     +           ",
"        +  + ++..   @#$$%$$$%%*=======*%#@ ++.++      . ..  ",
"+.. ..       ++++  +@#&&$$$$$*====-=-=*%$#@+..++ +++        ",
"                   @#&&#%$%$%###=====###$#@   +++++.   .    ",
"+  +++ ++++  ++ .+ +@##$$$%$*#;>#===#>,#$#@..      + ..     ",
"                     @#$%&%$*=')!~{{')!&%#@                 ",
"  +++. +.+  ++ ..  +@#$%&&%$%=')!~~~')!&%#@++++++           ",
"++          ++ ++  +@#%##&%$%#~~~~~~~~=&#@       .++        ",
"                     @#@#&%%$#*=~~~~~=&#@               .   ",
"   .+ ++++  + .. + ++ @@#@$%$&#]====&##@++ ++++            +",
"                       @#@#&&&%^^^^^'#@@        +.++ +++    ",
"        ++   +++ + ++ +@#@$#]]'^^'']]]##@ +++++++++++ + .+  ",
"...+ ++.                @@#~#]'^'']]]#~~#@                  ",
"+++. .+ +. @++. ++ ++ +@@@#//(]_]////#~:#@@ .++++++++       ",
"+ ++ +++++@#@+. +  ++ @###~/_(<][]__/#~~:##@          +  .  ",
" +++ .+ ++@~#@@ @@ +@@#]]~~#<<][}}]_/(#~~]]#@+.++.+.+ +++.  ",
" +++  +.+@##&##@##@@###]]~~#||||]}1]}[#~]]]#@++.+.+.+ +..+ .",
" .++ +.++@#~|&&#&&##222]]]~<||||||}}}[#]]]##@++++.+ + ++    ",
"          @##|||&&22|2||]]#<||||||<<<<#]]#||#@+.+++ +     + ",
".+       @#~~~||&&|#######@@3443433433###|||2#@@      + . + ",
".++.      @#####&&#@@@@@@@@/#444444344#@@##||###@     +...+ ",
"+     .+. +@@@@###@ @#######/#5<6###//##@@@#|&&&#@+++   +++ ",
" +++ + +  +   .@@@ @#<<7#]5555<<<8##//#]#@@#&&&#&#@@+ +     ",
" ++  .+++ + + +++++@#<<<<55<<<<<9998888]]###&||&|###@       ",
".+ .   ++ ++  +++.+@#<<<<<<<]]]]]]]999890ab##||||&#~#@+  . .",
"                    @#</c/]]]]]#@#]]]]990abb##~#+|~#@ ++.+  ",
"                     @#]/]]]]]]#@@#]]]]/0adbe##~@#~@+       ",
"                     @#]f]]]]]#@ @#]]]]]0ad/eee@ @@   +    +",
" +++ .++++ +        +@#f]]g]]]#@++@#]]]]/ad/###@+ +.      . ",
"                     @#f]]]]]#@   @#]g]]7###@@@+..+.+ +     ",
"++     .++ .   .  ++@#]f]]]]#@ + + @#]]]7#@@+++             ",
"                   @#]f|||2#@      @#||27#@      ++++       ",
"++.+. ..++ . ++ + @#]]||||#@+ ++++ @#|||]]#@++++++    + ++  ",
" ++++ . ++ + +++ @#]||||##@+  ..+. @#|||]]]#@+    ++ + +++++",
" ++++ +++++  +.+ @#]h|h#@@  . ..+. +@#|#]i]#@ +   ++  ...   ",
"     .  +++  +++ @#]hh#@+  + +++++   @#]i:]#@+....++  +     ",
"                @#]:j#@            ++.@#iii#@+...++         ",
"++      +.+     @#]:#@                 @#k:]#@       +++.  +",
" +++.. .        @#:j#@ +  + +++   ++++ @#::|#@+  +  +   .   ",
"   +++ ++.++ ++@#~j#@                   @#]]#@           .. ",
"               @#~~#@           . ++.+ +@#~~#@.+ .+ .+ +++  ",
"++   ++ +..+  @#~lll@+ +  +..  ++   ++ +@llll#@ ++ +  ++  + ",
"             @##~l''#@                 @#l''l#@             ",
" +...    ... @#mnnll#@+  +    ++ ++++  @#llllm#@   +       .",
"  ++ +..  ++ @#onnnn##@ +. +   + +++. .@#nnnnm#@+ .. .++    ",
"  +++.+++    @#onnn''n#@@@@@@@@@@@@@@@@#nn''n##@+   ++.    +",
"    ++....    @#o'''''#pppppppppppppppp#o''''o#@ +++.   .   ",
"     +   ..  .@########ppppppppppppppppp######@+ +   .      ",
"      +++.+    @@@@@@@@@@@@@@@@@@@@@@@@@@@@@@@    .     ..  "};
