/* XPM */
static char * orb_xpm[] = {
"60 60 5 1",
" 	c #53674C",
".	c #74776E",
"+	c #3E584B",
"@	c #000000",
"#	c #FFFFFF",
"    .   + +. . ++++      + + +    +    + +++       +  .     ",
"     .  + .+ .++   +   ++ +++ ++ + +  +++++ +++    +   .    ",
"........+.. +.+++ ++ +  + ++. ++    +++..++.++++      ++++ +",
"                                                            ",
"                                       ++++ +++.. + .+      ",
"    + + + .++++  ++ + ++  +                    +++ . +.     ",
"   + ++ + ++++ + ++  ++ +              .              +++ . ",
"++ + ++   ++++  +++      + ++++ + ++ +. . .++              +",
"+++  + + ++++           +. ..+  + +. +++               .    ",
"  +    + .     +++    + ++ .+   + ++ .+   +++++++ +      .+ ",
"+++ ++                                           +  ++      ",
"                                                +           ",
"        +  + ++..   .+ ++.+   +  +  + .  + ++.++      . ..  ",
"+.. ..       ++++  +++ ++++ + +  + .+ + ++ +..++ +++        ",
"                                              +++++.   .    ",
"+  +++ ++++  ++ .+ +      @@@@@@@@  +  +++ ..      + ..     ",
"                        @@@@@@@@@@@@                        ",
"  +++. +.+  ++ ..  ++ @@@@@@@@@@@@@@@@ +++ ++++++           ",
"++          ++ ++  ++@@@@@@@@@@@@@@@@@@+         .++        ",
"                    @@@@@@@@@@@@@@@@@@@@                .   ",
"   .+ ++++  + .. + @@@@@@@@@@#@@@@@@@@@@@+ ++++            +",
"                  @@@@@@@@@@@#@@@@@@@@@@@@      +.++ +++    ",
"        ++   +++ @@@@#@@@@@@@#@@@@@@@@#@@@@++++++++++ + .+  ",
"...+ ++.        @@@@@@#@@@@@@##@@@@@@#@@@@@@                ",
"+++. .+ +.  ++. @@@@@@@##@@@@##@@@@##@@@@@@@.++++++++       ",
"+ ++ +++++  ++.@@@@@@@@####@####@####@@@@@@@@         +  .  ",
" +++ .+ ++  +++@@@@@@@@@############@@@@@@@@@+.++.+.+ +++.  ",
" +++  +.++  ++@@@@@@@@@@############@@@@@@@@@@+.+.+.+ +..+ .",
" .++ +.++ +   @@@@@@@@@@@##########@@@@@@@@@@@+++.+ + ++    ",
"              @@@@@@@@@@############@@@@@@@@@@+.+++ +     + ",
".+            @@@@@@@@###################@@@@@        + . + ",
".++.          @@@@@###################@@@@@@@@        +...+ ",
"+     .+. +   @@@@@@@@@@############@@@@@@@@@@+++ +++   +++ ",
" +++ + +  +   @@@@@@@@@@@##########@@@@@@@@@@@+++++++ +     ",
" ++  .+++ + + @@@@@@@@@@############@@@@@@@@@@              ",
".+ .   ++ ++  +@@@@@@@@@############@@@@@@@@@++++ +++ +  . .",
"               @@@@@@@@####@####@####@@@@@@@@++.+.+.+ ++.+  ",
"                @@@@@@@##@@@@##@@@@##@@@@@@@     .+++       ",
"                @@@@@@#@@@@@@##@@@@@@#@@@@@@          +    +",
" +++ .++++ +     @@@@#@@@@@@@@#@@@@@@@#@@@@++++++ +.      . ",
"                  @@@@@@@@@@@@#@@@@@@@@@@@     +..+.+ +     ",
"++     .++ .   .  +@@@@@@@@@@@#@@@@@@@@@@.+++++             ",
"                    @@@@@@@@@@@@@@@@@@@@         ++++       ",
"++.+. ..++ . ++ + ++ @@@@@@@@@@@@@@@@@@+++++++++++    + ++  ",
" ++++ . ++ + +++ + ++ @@@@@@@@@@@@@@@@ ++ ++++    ++ + +++++",
" ++++ +++++  +.+ + +  ++@@@@@@@@@@@@.. ++     +   ++  ...   ",
"     .  +++  +++  + + +++ @@@@@@@@        ++++....++  +     ",
"                                   ++.  ++++++...++         ",
"++      +.+                                          +++.  +",
" +++.. .          ++   +  + +++   ++++        +  +  +   .   ",
"   +++ ++.++ ++ ..                                       .. ",
"                                . ++.+ + +++.+.+ .+ .+ +++  ",
"++   ++ +..+  + ++++++ +  +..  ++   ++ ++ +++++ ++ +  ++  + ",
"                                                            ",
" +...    ... ++ +++++ +  +    ++ ++++   ++ + .+    +       .",
"  ++ +..  ++ ++ .+++  + +. +   + +++. .+       ++ .. .++    ",
"  +++.+++    ++ +++ +.  .+ + +     ++ ++  . .++++   ++.    +",
"    ++....       + +.  + +  +++         ++++ +   +++.   .   ",
"     +   ..  .       .++   .++. +             ++ +   .      ",
"      +++.+     .                .++      +..+    .     ..  "};
