/* XPM */
static char * spike_o_xpm[] = {
"60 60 10 1",
" 	c #53674C",
".	c #74776E",
"+	c #3E584B",
"@	c #060B17",
"#	c #484348",
"$	c #665960",
"%	c #1B3A48",
"&	c #63ACAD",
"*	c #D3E9FB",
"=	c #FFFFFF",
"    .   + +. . ++++      + + +    +    + +++       +  .     ",
"     .  + .+ .++   +   ++ +++ ++ + +  +++++ +++    +   .    ",
"........+.. +.+++ ++ +  + ++. ++    +++..++.++++      ++++ +",
"                                                            ",
"                                       ++++ +++.. + .+      ",
"    + + + .++++  ++ + ++  +                    +++ . +.     ",
"   + ++ + ++++ + ++  ++ +              .              +++ . ",
"++ + ++   ++++  +++      + ++++ + ++ +. . .++              +",
"+++  + + ++++           +@@@@@@@+ +. +++               .    ",
"  +    + .     +++    + @@@@@@@@@ ++ .+   +++++++ +      .+ ",
"+++ ++                 @@#######@@               +  ++      ",
"                       @@@@@@@@@@@@             +           ",
"        +  + ++..   .+@@@.+   +  @@@+ .  + ++.++      . ..  ",
"+.. ..       ++++  ++@@@@@+ + + @@@@@ + ++ +..++ +++        ",
"                     @@$$$@@@@@@$$$$@@        +++++.   .    ",
"+  +++ ++++  ++ .+ +@@$$$$$$$$$$$$$$@@@+++ ..      + ..     ",
"                   @@%$$$$$$$$$$$$$%%@@@                    ",
"  +++. +.+  ++ .. @@&&%%%%%%%%%%%%%&&&@@++ ++++++           ",
"++          ++ ++ @@&&&&*********&&&&&@@         .++        ",
"                  @@@&&&&*********&&&@@                 .   ",
"   .+ ++++  + .. + @@%%%%%%%%%%%%%%@@@ +++ ++++            +",
"                   @@%%&&***=%%%&&&@@           +.++ +++    ",
"        ++   +++ + +@@&&&***==%&&&&@@+ ++ +++++++++++ + .+  ",
"...+ ++.            @@&&&&***=%&&&&@@                       ",
"+++. .+ +.  ++. ++ +@@&&&&***=%&&&&@@+ ++ . .++++++++       ",
"+ ++ +++++  ++. +  +@@&&&&&***%&&&&@@+ ++ +           +  .  ",
" +++ .+ ++  +++ ++ +@@&&&&&***%&&&&@@      ..+.++.+.+ +++.  ",
" +++  +.++  ++     +@@&&&&&***%&&&&@@+ ++ +++++.+.+.+ +..+ .",
" .++ +.++ +    .++ +@@&&&&&***%&&&&@@+ + .+..++++.+ + ++    ",
"                    @@%%&&&***%&&%%@@        ++.+++ +     + ",
".+               + +@@&&%%%%%%%%%&&@@..   +.+         + . + ",
".++.           .++ +@@&&&&&***%&&&&@@.. .++           +...+ ",
"+     .+. +   +     @@&&&&&***%&&&&@@      ++++++ +++   +++ ",
" +++ + +  +   .+++ +@@&&&&&***%&&&&@@.. .++++++++++++ +     ",
" ++  .+++ + + +++++ @@&&&&&***%&&&&@@++ ++++                ",
".+ .   ++ ++  +++.@@@@&&&&&&**%&&&&@@@@@@@  +++++ +++ +  . .",
"                 @@@@@&&&&&&**%&&&%@@@@@@@ ++++.+.+.+ ++.+  ",
"                @@$$$$%&&&&&&*%&&%$$$&&&@@       .+++       ",
"               @@$$$$$$%&&&&&%%%&%$$$$$&@@            +    +",
" +++ .++++ +   @@#$$$$$&%%%%%%%%%%%$$$$&@@+++++++ +.      . ",
"               @@####&&$$$$$$$$$$$$$$$$&@@     +..+.+ +     ",
"++     .++ .   @@####&$$$$$$$$$$$$$$$$$&@@+++++             ",
"               @@####&####$$$$$$$&&&@$#&@@       ++++       ",
"++.+. ..++ . ++@@####&#######$$$$$$&@##&@@++++++++    + ++  ",
" ++++ . ++ + ++@@####&##########$$$&@###@@++++    ++ + +++++",
" ++++ +++++  +.@@###&&&##########$$&@###@@    +   ++  ...   ",
"     .  +++  ++@@@###&##############@###@@++++....++  +     ",
"                @@@@@###############@##@@+++++...++         ",
"++      +.+       @@@@@@############@#@@             +++.  +",
" +++.. .          ++ @@@@@@@########@@@       +  +  +   .   ",
"   +++ ++.++ ++ ..      @@@@@@@#####@@                   .. ",
"                            @@@@@@@@@+ + +++.+.+ .+ .+ +++  ",
"++   ++ +..+  + ++++++ +  +..  @@@@@@+ ++ +++++ ++ +  ++  + ",
"                                                            ",
" +...    ... ++ +++++ +  +    ++ ++++   ++ + .+    +       .",
"  ++ +..  ++ ++ .+++  + +. +   + +++. .+       ++ .. .++    ",
"  +++.+++    ++ +++ +.  .+ + +     ++ ++  . .++++   ++.    +",
"    ++....       + +.  + +  +++         ++++ +   +++.   .   ",
"     +   ..  .       .++   .++. +             ++ +   .      ",
"      +++.+     .                .++      +..+    .     ..  "};
