/* XPM */
static char * wall_xpm[] = {
"60 60 6 1",
" 	c #5D2C28",
".	c #8B4A38",
"+	c #C2704A",
"@	c #796250",
"#	c #A18B74",
"$	c #C8B3A0",
"   .++++++++++++++++++++++++++++++++++++++++++++++++++++... ",
"     ...     ................................      ........ ",
"      .............           ..... ............    ....... ",
"   ..............       .....   ...   ..................... ",
" . .@@@@@    @@@@@@@@@@@@@@@@@@@@@@@@@@@@@@@@@@    @@@@@... ",
" . .##@#@    ###@@@@@@####$$$$$$@@@$$$@@@@@###$    @#$$$... ",
" . .##@#@.   ####@@#########$$#####$#####@#####   .@###$..  ",
" ...@@@@@. . ####$$####$#####$$###$$$########## . .@###$..  ",
" ...#@##@. . @@$$$$$$##$$$$$$$$$$$$$$$$$#####@@ . .@##$$..  ",
" ...#$##@++.+#@@###$$####$###$$$$$$$$$$########++++@#$$$.   ",
" ...$$$$@++.+##$##$$$$##$$$$$$$$$$$$$$$$####@##+++.@#$$$.   ",
" . .$$$$@++++@@$$$$$$$$$$$$$$$$$$$$$$$$$$@@@@@@+++.@$$$$.   ",
" . .$$$$@+.++#####$##$$$$$$$$$$$$$$$$$$$####@##+.++@$###. . ",
" . .$$##@+.++$$$$$$$$$$$$$$$$$$$$$$$$$$$$$$$@$$++++@$$$$. . ",
"   .@$##@++++$$$$$$$$$$$$$$$$$$$$$$$$$$$$$$$$$$+.++@$$$#. . ",
"   .@###@+.+.$$$$$$$$$$$$$$$$$$$$$$$$$####@####+.++@$$$#... ",
"   .####@+...$$$$$$$$$$$$$$$$$$$$$$$$$$$$@@@@@@..++@$$$$... ",
"  ..##@#@....$$$$$$$$$$$$$$$$$$$$$$$$$$$##@####..+.@$###... ",
"  ..@@@@@....$$$$$$$$$$$$$$$$$$$$$$$$$$$##@####....@####... ",
"  ..@###@....$$$$$$$$$$$$$$$$$$$$$$$$$$$$$$$###....@###$... ",
"  ..$###@. ..$$$$$$$$$$$$$$$$$$$$$$$###$#######.. .@####... ",
" ...$$$$@. ..$$$$$$$$$$$$$$$$$$$$$$$$$$$#####@#.. .@#$##... ",
" ...##$$@... $$$$$$$$$$$$$$$$$$$$$$$$$$$$###@@@ ...@$$$$... ",
" ...$$$$@. . ###$##$$$$$$$$$$$$$$##$$$$######## . .@$$$$... ",
" ...$$$$@    ###$$$$$$$$####$$$$###@@@#########    @$$$$... ",
" ...++++++++++++++++++++++++++++++++++++++++++++++++++++... ",
".++++++++++++++++++++++++++++++++++++++++++++++++++++++++++.",
"    ........      ......................................... ",
" ..       ......   .............   ...       ..........     ",
"      ........................     .        ........        ",
"   .++++++++++++++++++++++++++++++++++++++++++++++++++++... ",
"     ...     ................................      ........ ",
"      .............           ..... ............    ....... ",
"   ..............       .....   ...   ..................... ",
" . .@@@@@    @@@@@@@@@@@@@@@@@@@@@@@@@@@@@@@@@@    @@@@@... ",
" . .##@#@    ###@@@@@@####$$$$$$@@@$$$@@@@@###$    @#$$$... ",
" . .##@#@.   ####@@#########$$#####$#####@#####   .@###$..  ",
" ...@@@@@. . ####$$####$#####$$###$$$########## . .@###$..  ",
" ...#@##@. . @@$$$$$$##$$$$$$$$$$$$$$$$$#####@@ . .@##$$..  ",
" ...#$##@++.+#@@###$$####$###$$$$$$$$$$########++++@#$$$.   ",
" ...$$$$@++.+##$##$$$$##$$$$$$$$$$$$$$$$####@##+++.@#$$$.   ",
" . .$$$$@++++@@$$$$$$$$$$$$$$$$$$$$$$$$$$@@@@@@+++.@$$$$.   ",
" . .$$$$@+.++#####$##$$$$$$$$$$$$$$$$$$$####@##+.++@$###. . ",
" . .$$##@+.++$$$$$$$$$$$$$$$$$$$$$$$$$$$$$$$@$$++++@$$$$. . ",
"   .@$##@++++$$$$$$$$$$$$$$$$$$$$$$$$$$$$$$$$$$+.++@$$$#. . ",
"   .@###@+.+.$$$$$$$$$$$$$$$$$$$$$$$$$####@####+.++@$$$#... ",
"   .####@+...$$$$$$$$$$$$$$$$$$$$$$$$$$$$@@@@@@..++@$$$$... ",
"  ..##@#@....$$$$$$$$$$$$$$$$$$$$$$$$$$$##@####..+.@$###... ",
"  ..@@@@@....$$$$$$$$$$$$$$$$$$$$$$$$$$$##@####....@####... ",
"  ..@###@....$$$$$$$$$$$$$$$$$$$$$$$$$$$$$$$###....@###$... ",
"  ..$###@. ..$$$$$$$$$$$$$$$$$$$$$$$###$#######.. .@####... ",
" ...$$$$@. ..$$$$$$$$$$$$$$$$$$$$$$$$$$$#####@#.. .@#$##... ",
" ...##$$@... $$$$$$$$$$$$$$$$$$$$$$$$$$$$###@@@ ...@$$$$... ",
" ...$$$$@. . ###$##$$$$$$$$$$$$$$##$$$$######## . .@$$$$... ",
" ...$$$$@    ###$$$$$$$$####$$$$###@@@#########    @$$$$... ",
" ...++++++++++++++++++++++++++++++++++++++++++++++++++++... ",
".++++++++++++++++++++++++++++++++++++++++++++++++++++++++++.",
"    ........      ......................................... ",
" ..       ......   .............   ...       ..........     ",
"      ........................     .        ........        "};
